<?xml version="1.0" encoding="UTF-8"?>
<svg version="1.1" xmlns="http://www.w3.org/2000/svg" width="150" height="150">
<path d="M0 0 C3.24840289 1.45141406 5.72802442 3.24971377 8 6 C8 6.66 8 7.32 8 8 C8.88353149 7.98428955 8.88353149 7.98428955 9.78491211 7.96826172 C12.50239646 7.92620446 15.21981196 7.9005182 17.9375 7.875 C19.32678711 7.84986328 19.32678711 7.84986328 20.74414062 7.82421875 C30.27702468 7.75732132 37.80987339 9.47501151 46.25 13.875 C46.930625 14.21402344 47.61125 14.55304687 48.3125 14.90234375 C52.22932587 16.89871043 55.74975559 18.98911467 59 22 C59 22.66 59 23.32 59 24 C60.485 24.495 60.485 24.495 62 25 C62 25.66 62 26.32 62 27 C62.66 27 63.32 27 64 27 C67 30.46153846 67 30.46153846 67 33 C67.66 33 68.32 33 69 33 C77.3497175 47.45663062 81.44728927 61.9517967 77.6640625 78.6484375 C76.65703566 82.21449725 75.49265574 85.60823767 74 89 C73.60361328 89.96679688 73.60361328 89.96679688 73.19921875 90.953125 C70.54432978 96.89446243 66.46050473 101.32296592 62 106 C62.50144531 106.44988281 63.00289063 106.89976563 63.51953125 107.36328125 C64.25236328 108.17345703 64.25236328 108.17345703 65 109 C64.6875 111.1875 64.6875 111.1875 64 113 C58.25 113.125 58.25 113.125 56 112 C55.82984375 112.61488281 55.6596875 113.22976562 55.484375 113.86328125 C53.53276956 120.37209302 53.53276956 120.37209302 51.25 123.0625 C48.11048276 124.37063218 45.35929725 124.19380561 42 124 C42 123.34 42 122.68 42 122 C41.34 122 40.68 122 40 122 C39.74347656 122.6290625 39.48695312 123.258125 39.22265625 123.90625 C35.32876557 132.61178337 29.44328536 138.53079186 21 143 C16.88674039 144.18401649 12.82567452 144.16603386 8.5625 144.1875 C6.64630859 144.20876953 6.64630859 144.20876953 4.69140625 144.23046875 C-3.32123094 143.73020886 -10.00513277 139.92088821 -15.6875 134.34375 C-19 130.50426136 -19 130.50426136 -19 128 C-19.66 128 -20.32 128 -21 128 C-23.28571429 119.57142857 -23.28571429 119.57142857 -23 115 C-23.59167969 115.05800781 -24.18335938 115.11601563 -24.79296875 115.17578125 C-29.26014273 115.43084012 -31.30864991 115.51851256 -35 112.75 C-37.8 108.9 -37.8 108.9 -38 106 C-37.67 105.34 -37.34 104.68 -37 104 C-38.2065625 104.309375 -38.2065625 104.309375 -39.4375 104.625 C-46.07472386 105.32365514 -51.13227717 104.09616287 -56.375 99.875 C-61.15800445 95.2730256 -63.04470559 90.51798085 -63.375 83.9375 C-63 80 -63 80 -61.4375 76.375 C-59.83457933 72.61162104 -59.8924571 70.87640015 -61 67 C-61.33 66.67 -61.66 66.34 -62 66 C-62.76468845 56.31030495 -63.30466866 47.00823964 -57 39 C-51.00650883 32.69220278 -44.74493587 27.17345821 -35.765625 26.90234375 C-34.02539062 26.91974609 -34.02539062 26.91974609 -32.25 26.9375 C-30.49429687 26.95103516 -30.49429687 26.95103516 -28.703125 26.96484375 C-27.81109375 26.97644531 -26.9190625 26.98804687 -26 27 C-25.71382812 26.36449219 -25.42765625 25.72898437 -25.1328125 25.07421875 C-24 23 -24 23 -21.875 21.8125 C-19.7982233 20.19872135 -19.7982233 20.19872135 -19.8125 17.98828125 C-19.85445738 16.40176783 -19.9146098 14.81563971 -19.9921875 13.23046875 C-20.00187416 10.46492663 -19.260885 8.44296469 -18 6 C-17.34 6 -16.68 6 -16 6 C-15.67 5.01 -15.34 4.02 -15 3 C-10.58330573 -0.84679824 -5.55351351 -0.68618371 0 0 Z " fill="#444BE6" transform="translate(67,2)"/>
<path d="M0 0 C0.74701172 -0.00386719 1.49402344 -0.00773437 2.26367188 -0.01171875 C6.51509858 -0.00425356 10.50047691 0.28626405 14.6875 1.125 C14.6875 1.785 14.6875 2.445 14.6875 3.125 C15.22375 3.186875 15.76 3.24875 16.3125 3.3125 C19.73119966 4.48205515 21.95673885 6.80094796 24.6875 9.125 C25.6775 9.455 26.6675 9.785 27.6875 10.125 C31.06332383 15.9169653 32.26742196 21.51388961 31.6875 28.125 C31.1925 29.61 31.1925 29.61 30.6875 31.125 C30.0275 31.125 29.3675 31.125 28.6875 31.125 C28.67332031 31.77726562 28.65914063 32.42953125 28.64453125 33.1015625 C28.28532371 39.68379798 27.12691897 42.3526246 22.6875 47.125 C21.66761043 50.77545841 21.49533252 54.34660867 21.4375 58.125 C21.41171875 59.135625 21.3859375 60.14625 21.359375 61.1875 C21.75414911 64.72166819 22.44782892 66.35727639 24.6875 69.125 C29.61854791 72.51395258 34.32904107 74.08111713 40.125 75.375 C40.85654297 75.54773438 41.58808594 75.72046875 42.34179688 75.8984375 C44.12140288 76.31716833 45.90414951 76.72251513 47.6875 77.125 C48.0175 78.775 48.3475 80.425 48.6875 82.125 C41.9375 82.25 41.9375 82.25 39.6875 81.125 C39.51734375 81.73988281 39.3471875 82.35476562 39.171875 82.98828125 C37.22026956 89.49709302 37.22026956 89.49709302 34.9375 92.1875 C31.79798276 93.49563218 29.04679725 93.31880561 25.6875 93.125 C25.6875 92.465 25.6875 91.805 25.6875 91.125 C25.0275 91.125 24.3675 91.125 23.6875 91.125 C23.43097656 91.7540625 23.17445312 92.383125 22.91015625 93.03125 C19.01626557 101.73678337 13.13078536 107.65579186 4.6875 112.125 C0.57424039 113.30901649 -3.48682548 113.29103386 -7.75 113.3125 C-9.02746094 113.32667969 -10.30492187 113.34085937 -11.62109375 113.35546875 C-19.63373094 112.85520886 -26.31763277 109.04588821 -32 103.46875 C-35.3125 99.62926136 -35.3125 99.62926136 -35.3125 97.125 C-35.9725 97.125 -36.6325 97.125 -37.3125 97.125 C-39.59821429 88.69642857 -39.59821429 88.69642857 -39.3125 84.125 C-39.90417969 84.18300781 -40.49585938 84.24101563 -41.10546875 84.30078125 C-45.57264273 84.55584012 -47.62114991 84.64351256 -51.3125 81.875 C-54.22389241 77.87183544 -54.22389241 77.87183544 -54.3125 75.125 C-53.46308803 72.49954483 -52.70305898 71.39839128 -50.4375 69.8125 C-47.78309762 68.95372276 -46.85815433 68.9678844 -44.3125 70.125 C-42.62433067 71.76988294 -40.95896685 73.43837542 -39.3125 75.125 C-37.67107037 76.1659066 -36.00537785 77.17004326 -34.3125 78.125 C-33.73113281 78.65480469 -33.14976563 79.18460937 -32.55078125 79.73046875 C-29.50007346 81.63117151 -27.58825978 81.23405823 -24.0625 80.8125 C-22.98484375 80.69261719 -21.9071875 80.57273437 -20.796875 80.44921875 C-19.56710938 80.28873047 -19.56710938 80.28873047 -18.3125 80.125 C-18.3125 79.465 -18.3125 78.805 -18.3125 78.125 C-17.178125 77.733125 -16.04375 77.34125 -14.875 76.9375 C-11.10910949 75.53889118 -11.10910949 75.53889118 -10.375 72.4375 C-10.354375 71.674375 -10.33375 70.91125 -10.3125 70.125 C-9.9825 70.125 -9.6525 70.125 -9.3125 70.125 C-9.3125 72.765 -9.3125 75.405 -9.3125 78.125 C-10.3025 78.455 -11.2925 78.785 -12.3125 79.125 C-12.3125 81.105 -12.3125 83.085 -12.3125 85.125 C-5.54846628 87.37967791 0.97993545 85.86399822 7.6875 84.125 C7.6875 83.465 7.6875 82.805 7.6875 82.125 C8.68330078 81.88716797 8.68330078 81.88716797 9.69921875 81.64453125 C15.45984088 80.12238146 18.91150736 78.78205759 22.6875 74.125 C22.089375 74.455 21.49125 74.785 20.875 75.125 C18.6875 76.125 18.6875 76.125 15.6875 76.125 C16.5625 72.25 16.5625 72.25 17.6875 71.125 C15.7075 70.135 15.7075 70.135 13.6875 69.125 C13.6875 68.135 13.6875 67.145 13.6875 66.125 C14.3475 66.125 15.0075 66.125 15.6875 66.125 C15.67589844 65.37734375 15.66429688 64.6296875 15.65234375 63.859375 C15.64332031 62.87453125 15.63429688 61.8896875 15.625 60.875 C15.61339844 59.90046875 15.60179688 58.9259375 15.58984375 57.921875 C15.67636901 55.44379162 16.06412333 53.50070322 16.6875 51.125 C16.6875 49.805 16.6875 48.485 16.6875 47.125 C17.6775 46.795 18.6675 46.465 19.6875 46.125 C18.3675 45.465 17.0475 44.805 15.6875 44.125 C15.6875 43.465 15.6875 42.805 15.6875 42.125 C17.9975 41.465 20.3075 40.805 22.6875 40.125 C23.0175 38.805 23.3475 37.485 23.6875 36.125 C22.0375 35.465 20.3875 34.805 18.6875 34.125 C18.6875 33.465 18.6875 32.805 18.6875 32.125 C20.3375 32.125 21.9875 32.125 23.6875 32.125 C23.33971564 28.90799472 23.18677596 27.53349852 20.625 25.4375 C19.985625 25.004375 19.34625 24.57125 18.6875 24.125 C18.6875 23.465 18.6875 22.805 18.6875 22.125 C17.2025 21.63 17.2025 21.63 15.6875 21.125 C15.6875 20.465 15.6875 19.805 15.6875 19.125 C14.3675 19.125 13.0475 19.125 11.6875 19.125 C11.3575 17.475 11.0275 15.825 10.6875 14.125 C13.63706528 15.49444102 16.21218811 17.00330409 18.6875 19.125 C18.6875 19.785 18.6875 20.445 18.6875 21.125 C20.6675 21.785 22.6475 22.445 24.6875 23.125 C24.6875 22.465 24.6875 21.805 24.6875 21.125 C23.6975 21.125 22.7075 21.125 21.6875 21.125 C21.1925 19.64 21.1925 19.64 20.6875 18.125 C18.67241642 17.39176204 18.67241642 17.39176204 16.6875 17.125 C16.6875 16.135 16.6875 15.145 16.6875 14.125 C17.3475 14.125 18.0075 14.125 18.6875 14.125 C18.6875 13.465 18.6875 12.805 18.6875 12.125 C17.0375 12.125 15.3875 12.125 13.6875 12.125 C13.6875 8.125 13.6875 8.125 14.6875 7.125 C13.3675 7.125 12.0475 7.125 10.6875 7.125 C10.6875 6.465 10.6875 5.805 10.6875 5.125 C10.0275 5.125 9.3675 5.125 8.6875 5.125 C8.6875 6.115 8.6875 7.105 8.6875 8.125 C9.6775 8.125 10.6675 8.125 11.6875 8.125 C11.3575 9.115 11.0275 10.105 10.6875 11.125 C8.64916576 9.8510411 6.64897874 8.51438077 4.6875 7.125 C4.6875 6.465 4.6875 5.805 4.6875 5.125 C3.6975 5.125 2.7075 5.125 1.6875 5.125 C1.6875 4.465 1.6875 3.805 1.6875 3.125 C-0.2925 3.455 -2.2725 3.785 -4.3125 4.125 C-3.8175 5.115 -3.8175 5.115 -3.3125 6.125 C-2.76476378 13.06650321 -2.69919201 19.05980445 -6.3125 25.125 C-8.80153258 27.5337412 -10.91735732 28.51872452 -14.3125 29.125 C-13.31766798 30.34143292 -13.31766798 30.34143292 -11.36303711 30.23852539 C-10.1140564 30.23067017 -10.1140564 30.23067017 -8.83984375 30.22265625 C-7.49116211 30.21782227 -7.49116211 30.21782227 -6.11523438 30.21289062 C-5.16970703 30.20451172 -4.22417969 30.19613281 -3.25 30.1875 C-1.8259082 30.18073242 -1.8259082 30.18073242 -0.37304688 30.17382812 C1.98053065 30.1620011 4.33398477 30.14552025 6.6875 30.125 C7.3475 28.475 8.0075 26.825 8.6875 25.125 C9.3475 25.125 10.0075 25.125 10.6875 25.125 C10.6875 23.475 10.6875 21.825 10.6875 20.125 C11.0175 20.125 11.3475 20.125 11.6875 20.125 C11.831875 21.341875 11.97625 22.55875 12.125 23.8125 C12.51530953 26.95170377 13.01101856 30.0325134 13.6875 33.125 C11.55982378 35.32131093 9.80204109 36.95606365 6.703125 37.42578125 C1.01487299 37.45603791 -4.66850962 36.78484021 -10.3125 36.125 C-10.3125 35.465 -10.3125 34.805 -10.3125 34.125 C-10.9725 34.125 -11.6325 34.125 -12.3125 34.125 C-12.3125 35.445 -12.3125 36.765 -12.3125 38.125 C-13.74989513 38.15212066 -15.18743863 38.17145067 -16.625 38.1875 C-17.42550781 38.19910156 -18.22601563 38.21070313 -19.05078125 38.22265625 C-21.3125 38.125 -21.3125 38.125 -24.3125 37.125 C-24.3125 38.445 -24.3125 39.765 -24.3125 41.125 C-23.62542969 41.09019531 -22.93835938 41.05539063 -22.23046875 41.01953125 C-21.32941406 40.99246094 -20.42835937 40.96539062 -19.5 40.9375 C-18.16001953 40.88529297 -18.16001953 40.88529297 -16.79296875 40.83203125 C-13.89602485 41.17418998 -13.08694972 41.87893573 -11.3125 44.125 C-16.8125 49.125 -16.8125 49.125 -21.3125 49.125 C-20.8175 52.095 -20.8175 52.095 -20.3125 55.125 C-17.45759764 55.01019969 -14.6040412 54.88347036 -11.75 54.75 C-10.95013672 54.7190625 -10.15027344 54.688125 -9.32617188 54.65625 C-4.34826917 54.41243436 -0.04805351 53.68868612 4.6875 52.125 C4.6875 53.115 4.6875 54.105 4.6875 55.125 C4.048125 55.3725 3.40875 55.62 2.75 55.875 C0.50008459 56.94062433 0.50008459 56.94062433 -0.0625 59.25 C-0.145 59.86875 -0.2275 60.4875 -0.3125 61.125 C-0.9725 61.125 -1.6325 61.125 -2.3125 61.125 C-2.6425 62.445 -2.9725 63.765 -3.3125 65.125 C-3.9725 65.125 -4.6325 65.125 -5.3125 65.125 C-5.3125 63.475 -5.3125 61.825 -5.3125 60.125 C-6.6325 60.125 -7.9525 60.125 -9.3125 60.125 C-9.3125 62.105 -9.3125 64.085 -9.3125 66.125 C-8.3225 66.455 -7.3325 66.785 -6.3125 67.125 C-6.3125 67.785 -6.3125 68.445 -6.3125 69.125 C-7.9625 68.795 -9.6125 68.465 -11.3125 68.125 C-11.539375 67.196875 -11.76625 66.26875 -12 65.3125 C-13.56542384 61.5107564 -14.69255983 60.89287776 -18.3125 59.125 C-23.20138889 56.23611111 -23.20138889 56.23611111 -24.3125 55.125 C-24.38429964 53.60571962 -24.39642007 52.08332518 -24.375 50.5625 C-24.36597656 49.73621094 -24.35695313 48.90992188 -24.34765625 48.05859375 C-24.33605469 47.42050781 -24.32445313 46.78242187 -24.3125 46.125 C-24.9725 46.125 -25.6325 46.125 -26.3125 46.125 C-26.3125 42.165 -26.3125 38.205 -26.3125 34.125 C-27.50875 34.021875 -28.705 33.91875 -29.9375 33.8125 C-36.43005287 32.97659813 -41.27124168 30.35486371 -45.3125 25.125 C-46.37100355 19.12681322 -44.26817442 13.34304249 -41.3125 8.125 C-38.29699683 5.36343394 -36.30453648 4.75159234 -32.25 4.71875 C-30.80753906 4.68587891 -30.80753906 4.68587891 -29.3359375 4.65234375 C-27.3203125 4.63411458 -25.3046875 4.61588542 -23.2890625 4.59765625 C-21.84660156 4.56478516 -21.84660156 4.56478516 -20.375 4.53125 C-19.06208984 4.52061523 -19.06208984 4.52061523 -17.72265625 4.50976562 C-14.83616385 4.04895606 -13.54469994 2.95875924 -11.3125 1.125 C-7.51640266 -0.14036578 -3.95274984 -0.02014996 0 0 Z " fill="#AE5ED1" transform="translate(83.3125,32.875)"/>
<path d="M0 0 C0.74701172 -0.00386719 1.49402344 -0.00773437 2.26367188 -0.01171875 C6.51509858 -0.00425356 10.50047691 0.28626405 14.6875 1.125 C14.6875 1.785 14.6875 2.445 14.6875 3.125 C15.22375 3.186875 15.76 3.24875 16.3125 3.3125 C19.73119966 4.48205515 21.95673885 6.80094796 24.6875 9.125 C25.6775 9.455 26.6675 9.785 27.6875 10.125 C31.06332383 15.9169653 32.26742196 21.51388961 31.6875 28.125 C31.1925 29.61 31.1925 29.61 30.6875 31.125 C30.0275 31.125 29.3675 31.125 28.6875 31.125 C28.67332031 31.77726562 28.65914063 32.42953125 28.64453125 33.1015625 C28.28759081 39.64225482 26.92749561 42.05768817 22.6875 47.125 C21.68792665 50.75476381 21.13277759 54.38998499 20.6875 58.125 C20.0275 57.795 19.3675 57.465 18.6875 57.125 C19.1825 60.59 19.1825 60.59 19.6875 64.125 C19.0275 64.125 18.3675 64.125 17.6875 64.125 C17.6875 64.785 17.6875 65.445 17.6875 66.125 C18.3475 66.125 19.0075 66.125 19.6875 66.125 C19.3575 67.775 19.0275 69.425 18.6875 71.125 C17.0375 70.465 15.3875 69.805 13.6875 69.125 C13.6875 68.135 13.6875 67.145 13.6875 66.125 C14.3475 66.125 15.0075 66.125 15.6875 66.125 C15.67589844 65.37734375 15.66429687 64.6296875 15.65234375 63.859375 C15.64332031 62.87453125 15.63429687 61.8896875 15.625 60.875 C15.61339844 59.90046875 15.60179687 58.9259375 15.58984375 57.921875 C15.67636901 55.44379162 16.06412333 53.50070322 16.6875 51.125 C16.6875 49.805 16.6875 48.485 16.6875 47.125 C17.6775 46.795 18.6675 46.465 19.6875 46.125 C18.3675 45.465 17.0475 44.805 15.6875 44.125 C15.6875 43.465 15.6875 42.805 15.6875 42.125 C17.9975 41.465 20.3075 40.805 22.6875 40.125 C23.0175 38.805 23.3475 37.485 23.6875 36.125 C22.0375 35.465 20.3875 34.805 18.6875 34.125 C18.6875 33.465 18.6875 32.805 18.6875 32.125 C20.3375 32.125 21.9875 32.125 23.6875 32.125 C23.33971564 28.90799472 23.18677596 27.53349852 20.625 25.4375 C19.985625 25.004375 19.34625 24.57125 18.6875 24.125 C18.6875 23.465 18.6875 22.805 18.6875 22.125 C17.6975 21.795 16.7075 21.465 15.6875 21.125 C15.6875 20.465 15.6875 19.805 15.6875 19.125 C14.3675 19.125 13.0475 19.125 11.6875 19.125 C11.3575 17.475 11.0275 15.825 10.6875 14.125 C13.63706528 15.49444102 16.21218811 17.00330409 18.6875 19.125 C18.6875 19.785 18.6875 20.445 18.6875 21.125 C20.6675 21.785 22.6475 22.445 24.6875 23.125 C24.6875 22.465 24.6875 21.805 24.6875 21.125 C23.6975 21.125 22.7075 21.125 21.6875 21.125 C21.1925 19.64 21.1925 19.64 20.6875 18.125 C18.67241642 17.39176204 18.67241642 17.39176204 16.6875 17.125 C16.6875 16.135 16.6875 15.145 16.6875 14.125 C17.3475 14.125 18.0075 14.125 18.6875 14.125 C18.6875 13.465 18.6875 12.805 18.6875 12.125 C17.0375 12.125 15.3875 12.125 13.6875 12.125 C13.6875 8.125 13.6875 8.125 14.6875 7.125 C13.3675 7.125 12.0475 7.125 10.6875 7.125 C10.6875 6.465 10.6875 5.805 10.6875 5.125 C10.0275 5.125 9.3675 5.125 8.6875 5.125 C8.6875 6.115 8.6875 7.105 8.6875 8.125 C9.6775 8.125 10.6675 8.125 11.6875 8.125 C11.3575 9.115 11.0275 10.105 10.6875 11.125 C8.64916576 9.8510411 6.64897874 8.51438077 4.6875 7.125 C4.6875 6.465 4.6875 5.805 4.6875 5.125 C3.6975 5.125 2.7075 5.125 1.6875 5.125 C1.6875 4.465 1.6875 3.805 1.6875 3.125 C-0.2925 3.455 -2.2725 3.785 -4.3125 4.125 C-3.8175 5.115 -3.8175 5.115 -3.3125 6.125 C-2.76476378 13.06650321 -2.69919201 19.05980445 -6.3125 25.125 C-8.80153258 27.5337412 -10.91735732 28.51872452 -14.3125 29.125 C-13.31766798 30.34143292 -13.31766798 30.34143292 -11.36303711 30.23852539 C-10.1140564 30.23067017 -10.1140564 30.23067017 -8.83984375 30.22265625 C-7.49116211 30.21782227 -7.49116211 30.21782227 -6.11523438 30.21289062 C-5.16970703 30.20451172 -4.22417969 30.19613281 -3.25 30.1875 C-1.8259082 30.18073242 -1.8259082 30.18073242 -0.37304688 30.17382812 C1.98053065 30.1620011 4.33398477 30.14552025 6.6875 30.125 C7.3475 28.475 8.0075 26.825 8.6875 25.125 C9.3475 25.125 10.0075 25.125 10.6875 25.125 C10.6875 23.475 10.6875 21.825 10.6875 20.125 C11.0175 20.125 11.3475 20.125 11.6875 20.125 C11.831875 21.341875 11.97625 22.55875 12.125 23.8125 C12.51530953 26.95170377 13.01101856 30.0325134 13.6875 33.125 C11.55982378 35.32131093 9.80204109 36.95606365 6.703125 37.42578125 C1.01487299 37.45603791 -4.66850962 36.78484021 -10.3125 36.125 C-10.3125 35.465 -10.3125 34.805 -10.3125 34.125 C-10.9725 34.125 -11.6325 34.125 -12.3125 34.125 C-12.3125 35.445 -12.3125 36.765 -12.3125 38.125 C-13.74989513 38.15212066 -15.18743863 38.17145067 -16.625 38.1875 C-17.42550781 38.19910156 -18.22601563 38.21070313 -19.05078125 38.22265625 C-21.3125 38.125 -21.3125 38.125 -24.3125 37.125 C-24.3125 38.445 -24.3125 39.765 -24.3125 41.125 C-23.62542969 41.09019531 -22.93835938 41.05539063 -22.23046875 41.01953125 C-21.32941406 40.99246094 -20.42835937 40.96539062 -19.5 40.9375 C-18.16001953 40.88529297 -18.16001953 40.88529297 -16.79296875 40.83203125 C-13.89602485 41.17418998 -13.08694972 41.87893573 -11.3125 44.125 C-16.8125 49.125 -16.8125 49.125 -21.3125 49.125 C-20.9825 51.105 -20.6525 53.085 -20.3125 55.125 C-17.45759764 55.01019969 -14.6040412 54.88347036 -11.75 54.75 C-10.95013672 54.7190625 -10.15027344 54.688125 -9.32617188 54.65625 C-4.34826917 54.41243436 -0.04805351 53.68868612 4.6875 52.125 C4.6875 53.115 4.6875 54.105 4.6875 55.125 C4.048125 55.3725 3.40875 55.62 2.75 55.875 C0.50008459 56.94062433 0.50008459 56.94062433 -0.0625 59.25 C-0.145 59.86875 -0.2275 60.4875 -0.3125 61.125 C-0.9725 61.125 -1.6325 61.125 -2.3125 61.125 C-2.6425 62.445 -2.9725 63.765 -3.3125 65.125 C-3.9725 65.125 -4.6325 65.125 -5.3125 65.125 C-5.3125 63.475 -5.3125 61.825 -5.3125 60.125 C-6.6325 60.125 -7.9525 60.125 -9.3125 60.125 C-9.3125 62.105 -9.3125 64.085 -9.3125 66.125 C-8.3225 66.455 -7.3325 66.785 -6.3125 67.125 C-6.3125 67.785 -6.3125 68.445 -6.3125 69.125 C-7.9625 68.795 -9.6125 68.465 -11.3125 68.125 C-11.539375 67.196875 -11.76625 66.26875 -12 65.3125 C-13.56542384 61.5107564 -14.69255983 60.89287776 -18.3125 59.125 C-23.20138889 56.23611111 -23.20138889 56.23611111 -24.3125 55.125 C-24.38429964 53.60571962 -24.39642007 52.08332518 -24.375 50.5625 C-24.36597656 49.73621094 -24.35695313 48.90992188 -24.34765625 48.05859375 C-24.33605469 47.42050781 -24.32445313 46.78242187 -24.3125 46.125 C-24.9725 46.125 -25.6325 46.125 -26.3125 46.125 C-26.3125 42.165 -26.3125 38.205 -26.3125 34.125 C-27.50875 34.021875 -28.705 33.91875 -29.9375 33.8125 C-36.43005287 32.97659813 -41.27124168 30.35486371 -45.3125 25.125 C-46.37100355 19.12681322 -44.26817442 13.34304249 -41.3125 8.125 C-38.29699683 5.36343394 -36.30453648 4.75159234 -32.25 4.71875 C-30.80753906 4.68587891 -30.80753906 4.68587891 -29.3359375 4.65234375 C-27.3203125 4.63411458 -25.3046875 4.61588542 -23.2890625 4.59765625 C-21.84660156 4.56478516 -21.84660156 4.56478516 -20.375 4.53125 C-19.06208984 4.52061523 -19.06208984 4.52061523 -17.72265625 4.50976562 C-14.83616385 4.04895606 -13.54469994 2.95875924 -11.3125 1.125 C-7.51640266 -0.14036578 -3.95274984 -0.02014996 0 0 Z " fill="#ADBAF8" transform="translate(83.3125,32.875)"/>
<path d="M0 0 C1.98 0 3.96 0 6 0 C6 0.66 6 1.32 6 2 C6.99 2 7.98 2 9 2 C10.3743291 3.29103643 11.70896357 4.6256709 13 6 C13.66 6.33 14.32 6.66 15 7 C15.33 6.34 15.66 5.68 16 5 C15.01 5 14.02 5 13 5 C13 4.01 13 3.02 13 2 C13.66 2 14.32 2 15 2 C15 2.66 15 3.32 15 4 C16.32 4 17.64 4 19 4 C19.33 3.34 19.66 2.68 20 2 C20 2.99 20 3.98 20 5 C19.34 5 18.68 5 18 5 C18 6.32 18 7.64 18 9 C19.65 9 21.3 9 23 9 C23 9.66 23 10.32 23 11 C22.34 11 21.68 11 21 11 C21 11.99 21 12.98 21 14 C23.475 14.495 23.475 14.495 26 15 C26 15.99 26 16.98 26 18 C26.99 18 27.98 18 29 18 C29 18.66 29 19.32 29 20 C26.83125748 19.49396008 25.00032373 19.00016187 23 18 C23 17.34 23 16.68 23 16 C22.4225 15.731875 21.845 15.46375 21.25 15.1875 C18.9674132 13.98280141 17.0262058 12.59201885 15 11 C15.495 13.475 15.495 13.475 16 16 C17.32 16 18.64 16 20 16 C21.29291108 17.45452497 22.58065292 18.91812287 23.76171875 20.46484375 C25.2780715 22.34473848 26.99705641 23.66470428 29 25 C28.505 27.475 28.505 27.475 28 30 C26.35 29.67 24.7 29.34 23 29 C23 29.66 23 30.32 23 31 C25.475 31.99 25.475 31.99 28 33 C27.125 37.875 27.125 37.875 26 39 C24.00041636 39.04080783 21.99954746 39.04254356 20 39 C21.25541557 41.51083114 22.50063488 41.87125446 25 43 C23.02 43.495 23.02 43.495 21 44 C21.185625 45.134375 21.37125 46.26875 21.5625 47.4375 C21.706875 48.613125 21.85125 49.78875 22 51 C21.67 51.33 21.34 51.66 21 52 C20.76636119 53.84891946 20.58696365 55.70488031 20.4375 57.5625 C20.35371094 58.57441406 20.26992187 59.58632812 20.18359375 60.62890625 C20.12300781 61.41136719 20.06242187 62.19382813 20 63 C19.34 63 18.68 63 18 63 C18.66868314 66.11332248 18.66868314 66.11332248 21.0625 67.1875 C21.701875 67.455625 22.34125 67.72375 23 68 C22.01 69.65 21.02 71.3 20 73 C20.598125 72.67 21.19625 72.34 21.8125 72 C24 71 24 71 27 71 C25.25050318 75.27056661 23.09149779 76.36216132 19.04296875 78.25 C16.59993699 79.14686826 14.5801153 79.32251441 12 79 C12 79.66 12 80.32 12 81 C6.14383753 83.27739652 1.30402723 84.55298484 -5 84 C-7 82 -7 82 -7.125 79.375 C-7.08375 78.59125 -7.0425 77.8075 -7 77 C-6.01 76.505 -6.01 76.505 -5 76 C-4.53348793 73.87423218 -4.53348793 73.87423218 -4.375 71.4375 C-4.30023438 70.61121094 -4.22546875 69.78492187 -4.1484375 68.93359375 C-4.09945312 68.29550781 -4.05046875 67.65742187 -4 67 C-2.515 66.505 -2.515 66.505 -1 66 C0.01754868 64.1346755 0.01754868 64.1346755 0.6875 61.9375 C0.93886719 61.20402344 1.19023438 60.47054687 1.44921875 59.71484375 C1.63097656 59.14894531 1.81273438 58.58304688 2 58 C2.66 58 3.32 58 4 58 C4.33 56.35 4.66 54.7 5 53 C6.98 52.505 6.98 52.505 9 52 C9 51.01 9 50.02 9 49 C7.55753906 49.71929687 7.55753906 49.71929687 6.0859375 50.453125 C1.64281316 52.35572232 -2.59071157 52.5871636 -7.375 52.75 C-8.19355469 52.79253906 -9.01210937 52.83507812 -9.85546875 52.87890625 C-11.90199303 52.97054167 -13.95144263 52.99155234 -16 53 C-17 52 -17 52 -17.0625 48.9375 C-17.041875 47.968125 -17.02125 46.99875 -17 46 C-16.05125 45.7525 -15.1025 45.505 -14.125 45.25 C-10.91306809 44.3142923 -10.91306809 44.3142923 -9.625 41.875 C-9.41875 41.25625 -9.2125 40.6375 -9 40 C-10.66342837 38.33657163 -12.7825709 38.63951903 -15.0625 38.4375 C-15.98160156 38.35371094 -16.90070312 38.26992187 -17.84765625 38.18359375 C-18.91306641 38.09271484 -18.91306641 38.09271484 -20 38 C-20 36.68 -20 35.36 -20 34 C-16.04 34.33 -12.08 34.66 -8 35 C-8 33.68 -8 32.36 -8 31 C-7.34 31 -6.68 31 -6 31 C-6 31.66 -6 32.32 -6 33 C-2.91684615 33.08733513 0.16598827 33.14050127 3.25 33.1875 C4.55904297 33.22520508 4.55904297 33.22520508 5.89453125 33.26367188 C10.98470787 33.37552399 10.98470787 33.37552399 15.609375 31.48828125 C16.29773438 30.75158203 16.29773438 30.75158203 17 30 C16.47731534 27.23723823 15.89130413 24.6739124 15 22 C14.34 22 13.68 22 13 22 C12.855625 22.804375 12.71125 23.60875 12.5625 24.4375 C12 27 12 27 11 28 C7.7165682 28.27818549 4.41882268 28.23177691 1.125 28.25 C0.20074219 28.270625 -0.72351563 28.29125 -1.67578125 28.3125 C-2.56394531 28.31765625 -3.45210937 28.3228125 -4.3671875 28.328125 C-5.18300293 28.3374707 -5.99881836 28.34681641 -6.83935547 28.35644531 C-9.47094179 27.92230791 -10.3391242 27.03003376 -12 25 C-10.741875 24.773125 -9.48375 24.54625 -8.1875 24.3125 C-4.96059443 23.51432548 -4.21182409 23.26648838 -2.0625 20.5625 C-0.35762241 16.45073641 0.11140843 13.43436423 0.0625 9 C0.05347656 7.948125 0.04445313 6.89625 0.03515625 5.8125 C0.02355469 4.884375 0.01195313 3.95625 0 3 C0 2.01 0 1.02 0 0 Z " fill="#5830D9" transform="translate(79,36)"/>
<path d="M0 0 C1.75570313 0.01353516 1.75570313 0.01353516 3.546875 0.02734375 C4.43890625 0.03894531 5.3309375 0.05054687 6.25 0.0625 C5.92 1.0525 5.59 2.0425 5.25 3.0625 C4.59 3.0625 3.93 3.0625 3.25 3.0625 C3.1675 3.59875 3.085 4.135 3 4.6875 C2.18991135 7.25278071 0.88254979 9.04500994 -0.63671875 11.23828125 C-8.80420005 24.62148745 -9.73348751 41.46555272 -6.1875 56.4375 C-6.043125 56.97375 -5.89875 57.51 -5.75 58.0625 C-14.84837852 57.18201176 -18.80846076 52.67970164 -24.75 46.0625 C-25.57371094 45.28712891 -25.57371094 45.28712891 -26.4140625 44.49609375 C-31.09677895 39.47107347 -30.29217051 32.78539427 -30.1171875 26.33984375 C-29.6149439 18.1881808 -26.14189114 13.07426159 -20.25 7.625 C-13.52728336 1.95566678 -8.75341778 -0.08753418 0 0 Z " fill="#F99C78" transform="translate(34.75,28.9375)"/>
<path d="M0 0 C1.98 0 3.96 0 6 0 C6 0.66 6 1.32 6 2 C6.99 2 7.98 2 9 2 C10.3743291 3.29103643 11.70896357 4.6256709 13 6 C13.66 6.33 14.32 6.66 15 7 C15.33 6.34 15.66 5.68 16 5 C15.01 5 14.02 5 13 5 C13 4.01 13 3.02 13 2 C13.66 2 14.32 2 15 2 C15 2.66 15 3.32 15 4 C16.32 4 17.64 4 19 4 C19.33 3.34 19.66 2.68 20 2 C20 2.99 20 3.98 20 5 C19.34 5 18.68 5 18 5 C18 6.32 18 7.64 18 9 C19.65 9 21.3 9 23 9 C23 9.66 23 10.32 23 11 C22.34 11 21.68 11 21 11 C21 11.99 21 12.98 21 14 C23.475 14.495 23.475 14.495 26 15 C26 15.99 26 16.98 26 18 C26.99 18 27.98 18 29 18 C29 18.66 29 19.32 29 20 C26.83125748 19.49396008 25.00032373 19.00016187 23 18 C23 17.34 23 16.68 23 16 C22.4225 15.731875 21.845 15.46375 21.25 15.1875 C18.9674132 13.98280141 17.0262058 12.59201885 15 11 C15.33 12.65 15.66 14.3 16 16 C17.32 16 18.64 16 20 16 C21.29291108 17.45452497 22.58065292 18.91812287 23.76171875 20.46484375 C25.2780715 22.34473848 26.99705641 23.66470428 29 25 C28.505 27.475 28.505 27.475 28 30 C26.35 29.67 24.7 29.34 23 29 C23 29.66 23 30.32 23 31 C25.475 31.99 25.475 31.99 28 33 C27.125 37.875 27.125 37.875 26 39 C24.00041636 39.04080783 21.99954746 39.04254356 20 39 C20.66 38.67 21.32 38.34 22 38 C22 35.36 22 32.72 22 30 C20.35 30.33 18.7 30.66 17 31 C17.04125 30.2575 17.0825 29.515 17.125 28.75 C16.99601866 25.91241048 16.42948778 24.41226062 15 22 C14.34 22 13.68 22 13 22 C12.855625 22.804375 12.71125 23.60875 12.5625 24.4375 C12 27 12 27 11 28 C7.7165682 28.27818549 4.41882268 28.23177691 1.125 28.25 C0.20074219 28.270625 -0.72351563 28.29125 -1.67578125 28.3125 C-2.56394531 28.31765625 -3.45210937 28.3228125 -4.3671875 28.328125 C-5.18300293 28.3374707 -5.99881836 28.34681641 -6.83935547 28.35644531 C-9.47094179 27.92230791 -10.3391242 27.03003376 -12 25 C-10.741875 24.773125 -9.48375 24.54625 -8.1875 24.3125 C-4.96059443 23.51432548 -4.21182409 23.26648838 -2.0625 20.5625 C-0.35762241 16.45073641 0.11140843 13.43436423 0.0625 9 C0.04896484 7.4221875 0.04896484 7.4221875 0.03515625 5.8125 C0.02355469 4.884375 0.01195313 3.95625 0 3 C0 2.01 0 1.02 0 0 Z " fill="#7C92F4" transform="translate(79,36)"/>
<path d="M0 0 C0.33 0 0.66 0 1 0 C1.144375 1.216875 1.28875 2.43375 1.4375 3.6875 C1.82780953 6.82670377 2.32351856 9.9075134 3 13 C0.87232378 15.19631093 -0.88545891 16.83106365 -3.984375 17.30078125 C-9.67262701 17.33103791 -15.35600962 16.65984021 -21 16 C-21 15.34 -21 14.68 -21 14 C-21.66 14 -22.32 14 -23 14 C-23 15.32 -23 16.64 -23 18 C-24.43739513 18.02712066 -25.87493863 18.04645067 -27.3125 18.0625 C-28.51326172 18.07990234 -28.51326172 18.07990234 -29.73828125 18.09765625 C-32 18 -32 18 -35 17 C-35 18.32 -35 19.64 -35 21 C-34.31292969 20.96519531 -33.62585938 20.93039063 -32.91796875 20.89453125 C-32.01691406 20.86746094 -31.11585937 20.84039062 -30.1875 20.8125 C-28.84751953 20.76029297 -28.84751953 20.76029297 -27.48046875 20.70703125 C-24.58352485 21.04918998 -23.77444972 21.75393573 -22 24 C-27.5 29 -27.5 29 -32 29 C-31.67 30.98 -31.34 32.96 -31 35 C-28.14509764 34.88519969 -25.2915412 34.75847036 -22.4375 34.625 C-21.63763672 34.5940625 -20.83777344 34.563125 -20.01367188 34.53125 C-15.03576917 34.28743436 -10.73555351 33.56368612 -6 32 C-6 32.99 -6 33.98 -6 35 C-6.639375 35.2475 -7.27875 35.495 -7.9375 35.75 C-10.18741541 36.81562433 -10.18741541 36.81562433 -10.75 39.125 C-10.8325 39.74375 -10.915 40.3625 -11 41 C-11.66 41 -12.32 41 -13 41 C-13.33 42.32 -13.66 43.64 -14 45 C-14.66 45 -15.32 45 -16 45 C-16 43.35 -16 41.7 -16 40 C-17.32 40 -18.64 40 -20 40 C-20 41.98 -20 43.96 -20 46 C-19.01 46.33 -18.02 46.66 -17 47 C-17 47.66 -17 48.32 -17 49 C-18.65 48.67 -20.3 48.34 -22 48 C-22.226875 47.071875 -22.45375 46.14375 -22.6875 45.1875 C-24.25292384 41.3857564 -25.38005983 40.76787776 -29 39 C-33.88888889 36.11111111 -33.88888889 36.11111111 -35 35 C-35.07179964 33.48071962 -35.08392007 31.95832518 -35.0625 30.4375 C-35.05347656 29.61121094 -35.04445313 28.78492187 -35.03515625 27.93359375 C-35.02355469 27.29550781 -35.01195312 26.65742187 -35 26 C-35.66 26 -36.32 26 -37 26 C-37 22.04 -37 18.08 -37 14 C-38.794375 13.8453125 -38.794375 13.8453125 -40.625 13.6875 C-44.5624176 13.21108648 -47.54140375 11.98869284 -51 10 C-47.47320901 7.64880601 -45.97120515 7.78556548 -41.8125 7.875 C-40.72582031 7.89304687 -39.63914062 7.91109375 -38.51953125 7.9296875 C-37.27236328 7.96449219 -37.27236328 7.96449219 -36 8 C-36 9.32 -36 10.64 -36 12 C-34.68 12 -33.36 12 -32 12 C-31.34 10.68 -30.68 9.36 -30 8 C-25.125 8.875 -25.125 8.875 -24 10 C-22.5112814 10.08669432 -21.018555 10.10703494 -19.52734375 10.09765625 C-18.17866211 10.09282227 -18.17866211 10.09282227 -16.80273438 10.08789062 C-15.38444336 10.07532227 -15.38444336 10.07532227 -13.9375 10.0625 C-12.98810547 10.05798828 -12.03871094 10.05347656 -11.06054688 10.04882812 C-8.70696935 10.0370011 -6.35351523 10.02052025 -4 10 C-3.34 8.35 -2.68 6.7 -2 5 C-1.34 5 -0.68 5 0 5 C0 3.35 0 1.7 0 0 Z " fill="#9891EE" transform="translate(94,53)"/>
<path d="M0 0 C0.33 0.99 0.66 1.98 1 3 C1.99 2.67 2.98 2.34 4 2 C6 3.8125 6 3.8125 8 6 C8 6.99 8 7.98 8 9 C8.99 9 9.98 9 11 9 C11 9.66 11 10.32 11 11 C12.0725 10.979375 13.145 10.95875 14.25 10.9375 C19.66666667 11.02777778 19.66666667 11.02777778 22 12 C23.046875 14.06640625 23.046875 14.06640625 23.75 16.5625 C23.99234375 17.38878906 24.2346875 18.21507813 24.484375 19.06640625 C24.65453125 19.70449219 24.8246875 20.34257813 25 21 C25.66 21 26.32 21 27 21 C27.66 22.65 28.32 24.3 29 26 C23.67480733 29.51085712 19.33964181 31.55602404 12.875 30.75 C6.86370773 29.37289572 2.80558992 26.85475005 -1 22 C-4.04162227 16.83439744 -4.48287205 11.89103901 -4 6 C-3.125 3.0625 -3.125 3.0625 -2 1 C-1.34 0.67 -0.68 0.34 0 0 Z " fill="#1F9CF9" transform="translate(8,76)"/>
<path d="M0 0 C0.99 0 1.98 0 3 0 C3 1.32 3 2.64 3 4 C3.99 3.67 4.98 3.34 6 3 C9.3556206 5.2370804 9.19278041 5.42517038 10 9 C10.66 9.33 11.32 9.66 12 10 C12 9.34 12 8.68 12 8 C11.34 8 10.68 8 10 8 C10.33 7.01 10.66 6.02 11 5 C14 6 14 6 15.16796875 8.00390625 C17.81052048 14.63559737 19.33614464 19.99156608 17 27 C16.34 27 15.68 27 15 27 C14.97873047 27.97839844 14.97873047 27.97839844 14.95703125 28.9765625 C14.60009081 35.51725482 13.23999561 37.93268817 9 43 C8.00042665 46.62976381 7.44527759 50.26498499 7 54 C6.34 53.67 5.68 53.34 5 53 C5.33 55.31 5.66 57.62 6 60 C5.34 60 4.68 60 4 60 C4 60.66 4 61.32 4 62 C4.66 62 5.32 62 6 62 C5.505 64.475 5.505 64.475 5 67 C3.35 66.34 1.7 65.68 0 65 C0 64.01 0 63.02 0 62 C0.66 62 1.32 62 2 62 C1.98839844 61.25234375 1.97679688 60.5046875 1.96484375 59.734375 C1.95130859 58.25710937 1.95130859 58.25710937 1.9375 56.75 C1.92589844 55.77546875 1.91429688 54.8009375 1.90234375 53.796875 C1.98886901 51.31879162 2.37662333 49.37570322 3 47 C3 45.68 3 44.36 3 43 C4.485 42.505 4.485 42.505 6 42 C4.68 41.34 3.36 40.68 2 40 C2 39.34 2 38.68 2 38 C4.31 37.34 6.62 36.68 9 36 C9.33 34.68 9.66 33.36 10 32 C7.525 31.01 7.525 31.01 5 30 C5 29.34 5 28.68 5 28 C6.65 28 8.3 28 10 28 C9.65221564 24.78299472 9.49927596 23.40849852 6.9375 21.3125 C6.298125 20.879375 5.65875 20.44625 5 20 C5 19.34 5 18.68 5 18 C4.01 17.67 3.02 17.34 2 17 C2 16.34 2 15.68 2 15 C0.68 15 -0.64 15 -2 15 C-2.33 13.35 -2.66 11.7 -3 10 C-0.05043472 11.36944102 2.52468811 12.87830409 5 15 C5 15.66 5 16.32 5 17 C6.98 17.66 8.96 18.32 11 19 C11 18.34 11 17.68 11 17 C10.01 17 9.02 17 8 17 C7.67 16.01 7.34 15.02 7 14 C4.98491642 13.26676204 4.98491642 13.26676204 3 13 C3 12.01 3 11.02 3 10 C3.66 10 4.32 10 5 10 C5 9.34 5 8.68 5 8 C3.35 8 1.7 8 0 8 C0 4 0 4 1 3 C0.67 2.01 0.34 1.02 0 0 Z " fill="#9EA7F4" transform="translate(97,37)"/>
<path d="M0 0 C0 1.65 0 3.3 0 5 C0.66 5 1.32 5 2 5 C2 4.34 2 3.68 2 3 C4.31 3 6.62 3 9 3 C9 2.34 9 1.68 9 1 C13.455 0.505 13.455 0.505 18 0 C18.495 1.98 18.495 1.98 19 4 C18.67 4.33 18.34 4.66 18 5 C17.6068352 6.67884238 17.25914548 8.36850045 16.9375 10.0625 C16.76089844 10.98160156 16.58429688 11.90070312 16.40234375 12.84765625 C16.26957031 13.55792969 16.13679688 14.26820312 16 15 C15.01 15 14.02 15 13 15 C12.34 14.01 11.68 13.02 11 12 C10.67 13.32 10.34 14.64 10 16 C10.99 16 11.98 16 13 16 C13 16.66 13 17.32 13 18 C9.7 18 6.4 18 3 18 C2.67 16.68 2.34 15.36 2 14 C3.65 14 5.3 14 7 14 C7 13.01 7 12.02 7 11 C6.34 11 5.68 11 5 11 C5 10.34 5 9.68 5 9 C4.01 9.495 4.01 9.495 3 10 C2.67 10.99 2.34 11.98 2 13 C0.68 13 -0.64 13 -2 13 C-2 14.32 -2 15.64 -2 17 C-3.65 17 -5.3 17 -7 17 C-7.33 16.34 -7.66 15.68 -8 15 C-9.32 15 -10.64 15 -12 15 C-12 14.01 -12 13.02 -12 12 C-12.99 12 -13.98 12 -15 12 C-15 12.66 -15 13.32 -15 14 C-15.66 14 -16.32 14 -17 14 C-17 12.02 -17 10.04 -17 8 C-16.01 8 -15.02 8 -14 8 C-14 7.34 -14 6.68 -14 6 C-12.68 6.33 -11.36 6.66 -10 7 C-10 7.99 -10 8.98 -10 10 C-9.01 9.67 -8.02 9.34 -7 9 C-7 7.35 -7 5.7 -7 4 C-9.97 3.505 -9.97 3.505 -13 3 C-13 2.34 -13 1.68 -13 1 C-11.39602723 0.83147753 -9.7918131 0.66525114 -8.1875 0.5 C-7.29417969 0.4071875 -6.40085937 0.314375 -5.48046875 0.21875 C-3 0 -3 0 0 0 Z " fill="#3C56EC" transform="translate(60,40)"/>
<path d="M0 0 C2.9375 1.3125 2.9375 1.3125 5 3 C5.61875 3.474375 6.2375 3.94875 6.875 4.4375 C7.431875 5.2109375 7.431875 5.2109375 8 6 C7.5703125 8.09765625 7.5703125 8.09765625 7 10 C6.27296875 10.13535156 5.5459375 10.27070313 4.796875 10.41015625 C-2.56332332 11.98599358 -8.24886459 14.54750866 -14.6015625 18.57421875 C-17 20 -17 20 -19 20 C-20.51516221 16.96967558 -20.17028053 14.34885038 -20 11 C-19 8.0625 -19 8.0625 -18 6 C-17.34 6 -16.68 6 -16 6 C-15.67 5.01 -15.34 4.02 -15 3 C-10.58330573 -0.84679824 -5.55351351 -0.68618371 0 0 Z " fill="#4CDE4E" transform="translate(67,2)"/>
<path d="M0 0 C3.71599191 -0.20086443 4.77208445 -0.1519437 8 2 C8 2.66 8 3.32 8 4 C8.99 4.33 9.98 4.66 11 5 C11.37302695 15.67271556 11.37302695 15.67271556 9 20 C6.6978275 22.3021725 1.21557726 21.23290137 -1.875 21.25 C-2.79925781 21.270625 -3.72351563 21.29125 -4.67578125 21.3125 C-5.56394531 21.31765625 -6.45210937 21.3228125 -7.3671875 21.328125 C-8.18300293 21.3374707 -8.99881836 21.34681641 -9.83935547 21.35644531 C-12.47094179 20.92230791 -13.3391242 20.03003376 -15 18 C-13.01432292 17.64192708 -11.02864583 17.28385417 -9.04296875 16.92578125 C-5.31317937 15.23560901 -4.29778341 11.73798498 -2.83203125 8.10546875 C-2.49558594 7.14253906 -2.15914062 6.17960937 -1.8125 5.1875 C-1.29623047 3.72376953 -1.29623047 3.72376953 -0.76953125 2.23046875 C-0.51558594 1.49441406 -0.26164062 0.75835937 0 0 Z " fill="#4254EA" transform="translate(82,43)"/>
<path d="M0 0 C2.74823926 2.32486186 3.38691508 3.90781268 3.875 7.4375 C4.53026935 10.69799346 4.84394496 11.82558555 7.125 14.375 C14.29173659 18.42576416 22.04591366 20.13078971 30 22 C30.495 24.475 30.495 24.475 31 27 C24.25 27.125 24.25 27.125 22 26 C21.82984375 26.61488281 21.6596875 27.22976562 21.484375 27.86328125 C19.53276956 34.37209302 19.53276956 34.37209302 17.25 37.0625 C14.11048276 38.37063218 11.35929725 38.19380561 8 38 C8 37.34 8 36.68 8 36 C7.34 36 6.68 36 6 36 C6 34.68 6 33.36 6 32 C7.98 31.67 9.96 31.34 12 31 C12 30.34 12 29.68 12 29 C12.639375 28.71125 13.27875 28.4225 13.9375 28.125 C16.15206079 27.17176549 16.15206079 27.17176549 17 25 C18.65 25 20.3 25 22 25 C22 24.01 22 23.02 22 22 C19.03 22 16.06 22 13 22 C13 21.34 13 20.68 13 20 C12.01 20 11.02 20 10 20 C9.67 21.32 9.34 22.64 9 24 C9.99 24 10.98 24 12 24 C12 24.66 12 25.32 12 26 C10.68 25.67 9.36 25.34 8 25 C7.67 23.35 7.34 21.7 7 20 C3.80097361 19.91113816 1.07322544 20.08941469 -2 21 C-1.67 19.68 -1.34 18.36 -1 17 C-0.34 17 0.32 17 1 17 C1.33 15.02 1.66 13.04 2 11 C1.34 11 0.68 11 0 11 C0 10.34 0 9.68 0 9 C0.66 9 1.32 9 2 9 C1.34 8.01 0.68 7.02 0 6 C-0.125 2.8125 -0.125 2.8125 0 0 Z " fill="#C4B0EF" transform="translate(101,88)"/>
<path d="M0 0 C1.46953125 0.01450195 1.46953125 0.01450195 2.96875 0.02929688 C4.49242187 0.06700195 4.49242187 0.06700195 6.046875 0.10546875 C7.59375 0.12577148 7.59375 0.12577148 9.171875 0.14648438 C11.71407292 0.18179268 14.25520723 0.23110839 16.796875 0.29296875 C16.796875 0.62296875 16.796875 0.95296875 16.796875 1.29296875 C10.856875 1.29296875 4.916875 1.29296875 -1.203125 1.29296875 C-1.203125 1.95296875 -1.203125 2.61296875 -1.203125 3.29296875 C-2.193125 3.29296875 -3.183125 3.29296875 -4.203125 3.29296875 C-4.203125 3.95296875 -4.203125 4.61296875 -4.203125 5.29296875 C-1.233125 5.78796875 -1.233125 5.78796875 1.796875 6.29296875 C2.126875 8.27296875 2.456875 10.25296875 2.796875 12.29296875 C1.476875 12.29296875 0.156875 12.29296875 -1.203125 12.29296875 C-1.203125 11.30296875 -1.203125 10.31296875 -1.203125 9.29296875 C-2.523125 8.96296875 -3.843125 8.63296875 -5.203125 8.29296875 C-5.203125 8.95296875 -5.203125 9.61296875 -5.203125 10.29296875 C-6.193125 10.29296875 -7.183125 10.29296875 -8.203125 10.29296875 C-8.203125 12.27296875 -8.203125 14.25296875 -8.203125 16.29296875 C-7.543125 16.29296875 -6.883125 16.29296875 -6.203125 16.29296875 C-6.203125 15.63296875 -6.203125 14.97296875 -6.203125 14.29296875 C-5.213125 14.29296875 -4.223125 14.29296875 -3.203125 14.29296875 C-3.203125 15.28296875 -3.203125 16.27296875 -3.203125 17.29296875 C-1.883125 16.96296875 -0.563125 16.63296875 0.796875 16.29296875 C1.126875 17.28296875 1.456875 18.27296875 1.796875 19.29296875 C3.446875 19.29296875 5.096875 19.29296875 6.796875 19.29296875 C6.796875 17.97296875 6.796875 16.65296875 6.796875 15.29296875 C8.116875 15.29296875 9.436875 15.29296875 10.796875 15.29296875 C11.126875 13.97296875 11.456875 12.65296875 11.796875 11.29296875 C12.456875 11.29296875 13.116875 11.29296875 13.796875 11.29296875 C13.796875 11.95296875 13.796875 12.61296875 13.796875 13.29296875 C14.456875 13.29296875 15.116875 13.29296875 15.796875 13.29296875 C15.796875 14.28296875 15.796875 15.27296875 15.796875 16.29296875 C13.156875 16.29296875 10.516875 16.29296875 7.796875 16.29296875 C7.796875 17.94296875 7.796875 19.59296875 7.796875 21.29296875 C2.186875 21.29296875 -3.423125 21.29296875 -9.203125 21.29296875 C-9.203125 18.32296875 -9.203125 15.35296875 -9.203125 12.29296875 C-9.863125 12.29296875 -10.523125 12.29296875 -11.203125 12.29296875 C-11.533125 14.93296875 -11.863125 17.57296875 -12.203125 20.29296875 C-12.533125 20.29296875 -12.863125 20.29296875 -13.203125 20.29296875 C-13.74694084 14.03908665 -12.3072612 8.77311044 -9.203125 3.29296875 C-6.13510168 0.45684085 -4.13819429 -0.07217781 0 0 Z " fill="#849BF5" transform="translate(51.203125,37.70703125)"/>
<path d="M0 0 C0.99 0.33 1.98 0.66 3 1 C3.33 2.65 3.66 4.3 4 6 C4.99 6.33 5.98 6.66 7 7 C7 6.34 7 5.68 7 5 C6.01 5 5.02 5 4 5 C4.33 3.68 4.66 2.36 5 1 C5.99 1 6.98 1 8 1 C8 1.66 8 2.32 8 3 C10.97 3 13.94 3 17 3 C17 3.99 17 4.98 17 6 C15.35 6 13.7 6 12 6 C11.67 6.99 11.34 7.98 11 9 C8.9375 9.6875 8.9375 9.6875 7 10 C7 10.66 7 11.32 7 12 C4.69 12.33 2.38 12.66 0 13 C0 13.66 0 14.32 0 15 C-1.62395997 15.50336767 -3.24920541 16.00258976 -4.875 16.5 C-5.77992187 16.7784375 -6.68484375 17.056875 -7.6171875 17.34375 C-10 18 -10 18 -12 18 C-12 15.69 -12 13.38 -12 11 C-11.01 11 -10.02 11 -9 11 C-9 11.66 -9 12.32 -9 13 C-8.01 13 -7.02 13 -6 13 C-5.67 11.35 -5.34 9.7 -5 8 C-4.34 8 -3.68 8 -3 8 C-3 7.34 -3 6.68 -3 6 C-1.68 6 -0.36 6 1 6 C1 5.01 1 4.02 1 3 C0.34 2.67 -0.32 2.34 -1 2 C-0.67 1.34 -0.34 0.68 0 0 Z " fill="#8D58D9" transform="translate(106,107)"/>
<path d="M0 0 C0.33 0 0.66 0 1 0 C1 2.64 1 5.28 1 8 C0.01 8.33 -0.98 8.66 -2 9 C-2 10.98 -2 12.96 -2 15 C4.76403372 17.25467791 11.29243545 15.73899822 18 14 C18 13.34 18 12.68 18 12 C18.68707031 11.80664062 19.37414062 11.61328125 20.08203125 11.4140625 C21.43361328 11.02347656 21.43361328 11.02347656 22.8125 10.625 C23.70582031 10.36976562 24.59914063 10.11453125 25.51953125 9.8515625 C28.20467896 9.04733339 28.20467896 9.04733339 31 7 C31.99 7 32.98 7 34 7 C34 7.99 34 8.98 34 10 C32.68 10 31.36 10 30 10 C30 10.66 30 11.32 30 12 C29.34 12.33 28.68 12.66 28 13 C27.34786708 15.02463255 27.34786708 15.02463255 27 17 C26.01 17 25.02 17 24 17 C24 16.34 24 15.68 24 15 C23.01 15 22.02 15 21 15 C21 16.65 21 18.3 21 20 C19.34385343 20.38218767 17.67542976 20.71395102 16 21 C15.67 20.67 15.34 20.34 15 20 C13.29116884 20.00591291 11.58241585 20.05521461 9.875 20.125 C4.68381411 20.1991598 1.61791788 19.21275232 -3 17 C-3.99 17.33 -4.98 17.66 -6 18 C-6 17.34 -6 16.68 -6 16 C-5.34 16 -4.68 16 -4 16 C-4 14.35 -4 12.7 -4 11 C-4.99 11 -5.98 11 -7 11 C-6 8 -6 8 -3.5 6.625 C-0.75147228 5.22066726 -0.75147228 5.22066726 -0.1875 2.3125 C-0.125625 1.549375 -0.06375 0.78625 0 0 Z " fill="#B48EE7" transform="translate(73,103)"/>
<path d="M0 0 C3.56334284 2.9667281 5.83659931 5.73948038 6.4375 10.375 C6 13 6 13 5 14 C1.94567685 14.44174095 -0.94880014 14.46702039 -4 14 C-6.88204993 11.83846255 -8.4525703 10.20434533 -9.9375 6.9375 C-10.02077909 4.35584806 -9.47884525 3.11263608 -8 1 C-5.00458155 -1.09679291 -3.39399598 -1.21671554 0 0 Z " fill="#C2EC49" transform="translate(39,103)"/>
<path d="M0 0 C0.99 0 1.98 0 3 0 C4.26962147 1.46494785 5.5341523 2.93639068 6.7265625 4.46484375 C8.26925761 6.32459583 9.99497773 7.66331848 12 9 C11.67 10.65 11.34 12.3 11 14 C9.35 13.67 7.7 13.34 6 13 C6 13.66 6 14.32 6 15 C8.475 15.99 8.475 15.99 11 17 C10.125 21.875 10.125 21.875 9 23 C7.00041636 23.04080783 4.99954746 23.04254356 3 23 C3.66 22.67 4.32 22.34 5 22 C5 19.36 5 16.72 5 14 C3.35 14.33 1.7 14.66 0 15 C0 10.05 0 5.1 0 0 Z " fill="#7B7EED" transform="translate(96,52)"/>
<path d="M0 0 C0.33 0 0.66 0 1 0 C1.144375 1.216875 1.28875 2.43375 1.4375 3.6875 C1.82780953 6.82670377 2.32351856 9.9075134 3 13 C0.05438977 16.04062991 -2.07481079 17.30187935 -6.25 17.375 C-10.96416818 17.16900274 -15.44922958 16.20493212 -20 15 C-20 14.34 -20 13.68 -20 13 C-20.99 12.67 -21.98 12.34 -23 12 C-19.70039859 10.3501993 -16.00872116 10.61741639 -12.375 10.4375 C-11.57320312 10.39431641 -10.77140625 10.35113281 -9.9453125 10.30664062 C-7.9637489 10.20048543 -5.98189729 10.09973145 -4 10 C-3.34 8.35 -2.68 6.7 -2 5 C-1.34 5 -0.68 5 0 5 C0 3.35 0 1.7 0 0 Z " fill="#9C9BF0" transform="translate(94,53)"/>
<path d="M0 0 C0.3125 2.125 0.3125 2.125 0 5 C-1.24473609 6.37576094 -2.49120048 7.75008833 -3.75390625 9.109375 C-6.24926316 12.89543376 -6.4726778 17.57678989 -7 22 C-7.66 21.67 -8.32 21.34 -9 21 C-8.67 23.31 -8.34 25.62 -8 28 C-8.66 28 -9.32 28 -10 28 C-10 28.66 -10 29.32 -10 30 C-9.34 30 -8.68 30 -8 30 C-8.495 32.475 -8.495 32.475 -9 35 C-10.65 34.34 -12.3 33.68 -14 33 C-14 32.01 -14 31.02 -14 30 C-13.34 30 -12.68 30 -12 30 C-12.01160156 29.25234375 -12.02320312 28.5046875 -12.03515625 27.734375 C-12.04417969 26.74953125 -12.05320312 25.7646875 -12.0625 24.75 C-12.07410156 23.77546875 -12.08570312 22.8009375 -12.09765625 21.796875 C-12.01113099 19.31879162 -11.62337667 17.37570322 -11 15 C-11 13.68 -11 12.36 -11 11 C-10.01 10.67 -9.02 10.34 -8 10 C-9.32 9.34 -10.64 8.68 -12 8 C-12 7.34 -12 6.68 -12 6 C-10.865625 5.731875 -9.73125 5.46375 -8.5625 5.1875 C-7.386875 4.795625 -6.21125 4.40375 -5 4 C-4.67 3.01 -4.34 2.02 -4 1 C-1 0 -1 0 0 0 Z " fill="#866AE4" transform="translate(111,69)"/>
<path d="M0 0 C6.93 0 13.86 0 21 0 C19.63250116 2.73499769 18.28209292 2.79192086 15.4375 3.8125 C11.10924481 5.45810635 7.41553102 7.44681087 3.59375 10.046875 C2 11 2 11 0 11 C-1.49297212 8.01405576 -1.11755228 5.29146376 -1 2 C-0.67 1.34 -0.34 0.68 0 0 Z " fill="#63E04C" transform="translate(48,11)"/>
<path d="M0 0 C0 0.99 0 1.98 0 3 C-0.639375 3.2475 -1.27875 3.495 -1.9375 3.75 C-4.18741541 4.81562433 -4.18741541 4.81562433 -4.75 7.125 C-4.8325 7.74375 -4.915 8.3625 -5 9 C-5.66 9 -6.32 9 -7 9 C-7.33 10.32 -7.66 11.64 -8 13 C-8.66 13 -9.32 13 -10 13 C-10 11.35 -10 9.7 -10 8 C-11.32 8 -12.64 8 -14 8 C-14 9.98 -14 11.96 -14 14 C-13.01 14.33 -12.02 14.66 -11 15 C-11 15.66 -11 16.32 -11 17 C-12.65 16.67 -14.3 16.34 -16 16 C-16.3403125 14.6078125 -16.3403125 14.6078125 -16.6875 13.1875 C-18.22428705 9.45530287 -19.52758945 8.8275845 -23 7 C-23 6.34 -23 5.68 -23 5 C-21.98679687 4.89042969 -20.97359375 4.78085938 -19.9296875 4.66796875 C-18.57805539 4.50840107 -17.22649657 4.34821167 -15.875 4.1875 C-15.20984375 4.11724609 -14.5446875 4.04699219 -13.859375 3.97460938 C-9.01338394 3.38073792 -4.55793461 0 0 0 Z " fill="#B8A7EF" transform="translate(88,85)"/>
<path d="M0 0 C0.3125 3.25 0.3125 3.25 0 7 C-2.0625 9.4375 -2.0625 9.4375 -5 11 C-8.8125 11.25 -8.8125 11.25 -12 11 C-12 10.34 -12 9.68 -12 9 C-12.66 9 -13.32 9 -14 9 C-14 7.68 -14 6.36 -14 5 C-12.02 4.67 -10.04 4.34 -8 4 C-8 3.34 -8 2.68 -8 2 C-4.91190305 0.23537317 -3.76687864 0 0 0 Z " fill="#FBB819" transform="translate(121,115)"/>
<path d="M0 0 C1.32 0 2.64 0 4 0 C4 1.65 4 3.3 4 5 C4.66 5.33 5.32 5.66 6 6 C5.34 7.32 4.68 8.64 4 10 C3.01 10 2.02 10 1 10 C1 12.97 1 15.94 1 19 C0.01 19.33 -0.98 19.66 -2 20 C-2 21.65 -2 23.3 -2 25 C-2.33 25 -2.66 25 -3 25 C-3 23.02 -3 21.04 -3 19 C-2.34 18.67 -1.68 18.34 -1 18 C-1 17.01 -1 16.02 -1 15 C-1.598125 15.495 -2.19625 15.99 -2.8125 16.5 C-5 18 -5 18 -8 18 C-7 16 -7 16 -4 14 C-4.165 13.484375 -4.33 12.96875 -4.5 12.4375 C-5.15049 9.26636124 -5.0620734 6.22781666 -5 3 C-4.01 3 -3.02 3 -2 3 C-2 4.65 -2 6.3 -2 8 C-0.35 8.33 1.3 8.66 3 9 C2.505 8.62875 2.01 8.2575 1.5 7.875 C-0.59755514 5.25305607 -0.21743835 3.26157528 0 0 Z " fill="#8D63E0" transform="translate(74,93)"/>
<path d="M0 0 C0 1.65 0 3.3 0 5 C0.66 5 1.32 5 2 5 C2 4.34 2 3.68 2 3 C4.31 3 6.62 3 9 3 C9 2.34 9 1.68 9 1 C13.455 0.505 13.455 0.505 18 0 C19 4 19 4 18.125 6.3125 C15.47238508 8.41898832 14.59578394 8.11710734 11.3125 7.75 C9.87163335 7.52019671 8.43267304 7.27632268 7 7 C7 6.01 7 5.02 7 4 C5.68 4 4.36 4 3 4 C3 4.66 3 5.32 3 6 C1.35 6 -0.3 6 -2 6 C-2 4.68 -2 3.36 -2 2 C-4.64 2 -7.28 2 -10 2 C-10 1.67 -10 1.34 -10 1 C-3.375 0 -3.375 0 0 0 Z " fill="#6782F3" transform="translate(60,40)"/>
<path d="M0 0 C1.87643761 1.87643761 1.17984987 4.49805701 1.23046875 6.9921875 C1 9 1 9 -1 12 C-1 9.03 -1 6.06 -1 3 C-3.97 3 -6.94 3 -10 3 C-10 3.66 -10 4.32 -10 5 C-12.31 5 -14.62 5 -17 5 C-17 5.66 -17 6.32 -17 7 C-17.66 7 -18.32 7 -19 7 C-19 5.35 -19 3.7 -19 2 C-19.99 2.33 -20.98 2.66 -22 3 C-24.33299825 3.03954234 -26.66708189 3.04401732 -29 3 C-29 2.34 -29 1.68 -29 1 C-5.93253075 -0.42109822 -5.93253075 -0.42109822 0 0 Z " fill="#C1CDFA" transform="translate(79,38)"/>
<path d="M0 0 C0.66 0 1.32 0 2 0 C2 1.32 2 2.64 2 4 C2.66 4 3.32 4 4 4 C3.67 2.68 3.34 1.36 3 0 C3.66 0 4.32 0 5 0 C5 3.3 5 6.6 5 10 C4.34 10 3.68 10 3 10 C2.87625 10.7425 2.7525 11.485 2.625 12.25 C2.04513299 14.80141485 1.26291261 16.7267573 0 19 C0 18.01 0 17.02 0 16 C-0.78375 15.690625 -1.5675 15.38125 -2.375 15.0625 C-5 14 -5 14 -7 13 C-7 12.34 -7 11.68 -7 11 C-5.35 11 -3.7 11 -2 11 C-2.52268466 8.23723823 -3.10869587 5.6739124 -4 3 C-3.01 3 -2.02 3 -1 3 C-0.67 4.32 -0.34 5.64 0 7 C0.66 7 1.32 7 2 7 C1.34 6.01 0.68 5.02 0 4 C0 2.68 0 1.36 0 0 Z " fill="#BABEF6" transform="translate(109,54)"/>
<path d="M0 0 C0.99 0 1.98 0 3 0 C3 1.32 3 2.64 3 4 C3.99 3.67 4.98 3.34 6 3 C9.3556206 5.2370804 9.19278041 5.42517038 10 9 C10.66 9.33 11.32 9.66 12 10 C12 9.34 12 8.68 12 8 C11.34 8 10.68 8 10 8 C10.33 7.01 10.66 6.02 11 5 C11.99 5.33 12.98 5.66 14 6 C14.6875 8.0625 14.6875 8.0625 15 10 C14.34 10 13.68 10 13 10 C13 10.66 13 11.32 13 12 C10.03 11.505 10.03 11.505 7 11 C7 11.66 7 12.32 7 13 C5.68 13 4.36 13 3 13 C3 12.01 3 11.02 3 10 C3.66 10 4.32 10 5 10 C5 9.34 5 8.68 5 8 C3.35 8 1.7 8 0 8 C0 4 0 4 1 3 C0.67 2.01 0.34 1.02 0 0 Z " fill="#879EF6" transform="translate(97,37)"/>
<path d="M0 0 C2.64 0 5.28 0 8 0 C8.79953138 3.28696233 9.09658936 4.71023192 8 8 C7.01 8 6.02 8 5 8 C4.34 7.01 3.68 6.02 3 5 C2.67 6.32 2.34 7.64 2 9 C2.99 9 3.98 9 5 9 C5 9.66 5 10.32 5 11 C1.7 11 -1.6 11 -5 11 C-5.33 9.68 -5.66 8.36 -6 7 C-4.35 7 -2.7 7 -1 7 C-0.34 5.68 0.32 4.36 1 3 C1.66 3 2.32 3 3 3 C3 2.34 3 1.68 3 1 C2.01 0.67 1.02 0.34 0 0 Z " fill="#5467ED" transform="translate(68,47)"/>
<path d="M0 0 C0.33 0 0.66 0 1 0 C1 2.64 1 5.28 1 8 C0.01 8.33 -0.98 8.66 -2 9 C-2 10.98 -2 12.96 -2 15 C2.29 15.66 6.58 16.32 11 17 C10.67 17.99 10.34 18.98 10 20 C8.39504433 19.88557539 6.79101881 19.75805306 5.1875 19.625 C4.29417969 19.55539063 3.40085937 19.48578125 2.48046875 19.4140625 C0 19 0 19 -3 17 C-3.99 17.33 -4.98 17.66 -6 18 C-6 17.34 -6 16.68 -6 16 C-5.34 16 -4.68 16 -4 16 C-4 14.35 -4 12.7 -4 11 C-4.99 11 -5.98 11 -7 11 C-6 8 -6 8 -3.5 6.625 C-0.75147228 5.22066726 -0.75147228 5.22066726 -0.1875 2.3125 C-0.125625 1.549375 -0.06375 0.78625 0 0 Z " fill="#B491E8" transform="translate(73,103)"/>
<path d="M0 0 C3.125 2 3.125 2 5 4 C1.63207042 4.89811455 -1.47759563 5.04174847 -4.9375 5 C-8.74482472 4.95447145 -12.25810039 5.21223166 -16 6 C-15 3 -15 3 -13.0625 1.3125 C-8.69215497 -0.56050501 -4.68744281 -0.73001158 0 0 Z " fill="#24DA4E" transform="translate(67,2)"/>
<path d="M0 0 C0.4054175 4.38942407 -0.54293683 6.38317417 -3.25 9.8125 C-4.15492187 10.99779297 -4.15492187 10.99779297 -5.078125 12.20703125 C-7 14 -7 14 -11 14 C-11 13.01 -11 12.02 -11 11 C-10.01 10.67 -9.02 10.34 -8 10 C-9.32 9.34 -10.64 8.68 -12 8 C-12 7.34 -12 6.68 -12 6 C-10.865625 5.731875 -9.73125 5.46375 -8.5625 5.1875 C-7.386875 4.795625 -6.21125 4.40375 -5 4 C-4.67 3.01 -4.34 2.02 -4 1 C-1 0 -1 0 0 0 Z " fill="#A29AEF" transform="translate(111,69)"/>
<path d="M0 0 C3 0 3 0 4.60546875 1.4609375 C5.12753906 2.09257813 5.64960937 2.72421875 6.1875 3.375 C6.71730469 4.00148438 7.24710937 4.62796875 7.79296875 5.2734375 C9 7 9 7 9 9 C8.34 9 7.68 9 7 9 C7 9.66 7 10.32 7 11 C4.69 10.67 2.38 10.34 0 10 C0 6.7 0 3.4 0 0 Z " fill="#4552E8" transform="translate(96,52)"/>
<path d="M0 0 C0.66 0 1.32 0 2 0 C2 2.97 2 5.94 2 9 C2.84304687 8.91621094 3.68609375 8.83242188 4.5546875 8.74609375 C5.65039062 8.64425781 6.74609375 8.54242188 7.875 8.4375 C9.51082031 8.28087891 9.51082031 8.28087891 11.1796875 8.12109375 C14 8 14 8 16 9 C16 9.66 16 10.32 16 11 C13.73122896 11.24875561 11.45980265 11.47339246 9.1875 11.6875 C7.92292969 11.81511719 6.65835938 11.94273438 5.35546875 12.07421875 C2 12 2 12 0.06640625 10.7421875 C-1.67354953 7.89962238 -1.23548394 5.23790424 -1 2 C-0.67 1.34 -0.34 0.68 0 0 Z " fill="#BFC4F7" transform="translate(40,50)"/>
<path d="M0 0 C2.64 0 5.28 0 8 0 C8 0.33 8 0.66 8 1 C6.7934375 1.185625 6.7934375 1.185625 5.5625 1.375 C4.716875 1.58125 3.87125 1.7875 3 2 C2.67 2.66 2.34 3.32 2 4 C3.32 4.33 4.64 4.66 6 5 C4.68 5 3.36 5 2 5 C2.33 6.98 2.66 8.96 3 11 C8.61 11 14.22 11 20 11 C20 11.33 20 11.66 20 12 C17.06407392 12.41599768 14.12821726 12.8084144 11.1875 13.1875 C9.93743164 13.36829102 9.93743164 13.36829102 8.66210938 13.55273438 C7.85966797 13.65263672 7.05722656 13.75253906 6.23046875 13.85546875 C5.49207764 13.95496826 4.75368652 14.05446777 3.99291992 14.15698242 C2 14 2 14 0.2355957 12.7590332 C-1 11 -1 11 -1 7 C-0.34 7 0.32 7 1 7 C0.67 4.69 0.34 2.38 0 0 Z " fill="#967FE8" transform="translate(60,77)"/>
<path d="M0 0 C3.8080413 0.30063484 6.2094208 1.40874788 9 4 C9.33 4.99 9.66 5.98 10 7 C10.99 7.33 11.98 7.66 13 8 C11.68 8 10.36 8 9 8 C9 7.34 9 6.68 9 6 C8.484375 6.165 7.96875 6.33 7.4375 6.5 C4.26636124 7.15049 1.22781666 7.0620734 -2 7 C-2.125 4.625 -2.125 4.625 -2 2 C-1.34 1.34 -0.68 0.68 0 0 Z " fill="#8485EE" transform="translate(64,61)"/>
<path d="M0 0 C1.32 0.33 2.64 0.66 4 1 C4 1.99 4 2.98 4 4 C5.65 3.34 7.3 2.68 9 2 C9 2.99 9 3.98 9 5 C4.65714286 9 4.65714286 9 2 9 C2 8.01 2 7.02 2 6 C1.01 6 0.02 6 -1 6 C-1 6.66 -1 7.32 -1 8 C-1.66 8 -2.32 8 -3 8 C-3 6.02 -3 4.04 -3 2 C-2.01 2 -1.02 2 0 2 C0 1.34 0 0.68 0 0 Z " fill="#5368EE" transform="translate(46,46)"/>
<path d="M0 0 C0.33 0.66 0.66 1.32 1 2 C5.29 2 9.58 2 14 2 C4.66666667 9 4.66666667 9 1 9 C-0.4783226 6.04335481 -0.06032783 3.25770263 0 0 Z " fill="#84E44E" transform="translate(47,13)"/>
<path d="M0 0 C0.89203125 0.00902344 1.7840625 0.01804687 2.703125 0.02734375 C3.37859375 0.03894531 4.0540625 0.05054687 4.75 0.0625 C4.42 1.7125 4.09 3.3625 3.75 5.0625 C-4.44256018 5.69269694 -4.44256018 5.69269694 -7.8125 3.0625 C-8.5240625 2.0725 -8.5240625 2.0725 -9.25 1.0625 C-6.09493858 0.12630187 -3.28413498 -0.0432123 0 0 Z " fill="#E0EC4C" transform="translate(40.25,111.9375)"/>
<path d="M0 0 C1.83966725 1.90292229 3.38457481 3.89097267 5 6 C-1.93 5.505 -1.93 5.505 -9 5 C-8 1 -8 1 -6.1875 -0.3125 C-3.46728366 -1.16742514 -2.57897948 -1.25041429 0 0 Z " fill="#81DA51" transform="translate(39,103)"/>
<path d="M0 0 C0.66 0 1.32 0 2 0 C2 0.66 2 1.32 2 2 C2.66 2 3.32 2 4 2 C4 2.99 4 3.98 4 5 C1.36 5 -1.28 5 -4 5 C-4 6.65 -4 8.3 -4 10 C-7.3 10 -10.6 10 -14 10 C-14 9.01 -14 8.02 -14 7 C-14.66 7 -15.32 7 -16 7 C-15.67 6.34 -15.34 5.68 -15 5 C-13.35 5.33 -11.7 5.66 -10 6 C-10 6.66 -10 7.32 -10 8 C-8.35 8 -6.7 8 -5 8 C-5 6.68 -5 5.36 -5 4 C-3.68 4 -2.36 4 -1 4 C-0.67 2.68 -0.34 1.36 0 0 Z " fill="#7580EF" transform="translate(63,49)"/>
<path d="M0 0 C0.99 0 1.98 0 3 0 C3 0.66 3 1.32 3 2 C4.27875 1.814375 5.5575 1.62875 6.875 1.4375 C10.75 0.875 10.75 0.875 13 2 C12 4 12 4 9.78515625 4.8515625 C8.88667969 5.10679688 7.98820312 5.36203125 7.0625 5.625 C6.16660156 5.88539062 5.27070312 6.14578125 4.34765625 6.4140625 C2 7 2 7 0 7 C0 4.69 0 2.38 0 0 Z " fill="#9256DA" transform="translate(94,118)"/>
<path d="M0 0 C0.66 0.33 1.32 0.66 2 1 C1.34 2.98 0.68 4.96 0 7 C0.66 7.33 1.32 7.66 2 8 C2 8.99 2 9.98 2 11 C1.01 10.67 0.02 10.34 -1 10 C-1.33 9.34 -1.66 8.68 -2 8 C-4.35599235 7.53248212 -4.35599235 7.53248212 -7.0625 7.375 C-7.98160156 7.30023438 -8.90070312 7.22546875 -9.84765625 7.1484375 C-10.55792969 7.09945312 -11.26820312 7.05046875 -12 7 C-12 5.68 -12 4.36 -12 3 C-8.04 3.33 -4.08 3.66 0 4 C0 2.68 0 1.36 0 0 Z " fill="#584DE3" transform="translate(71,67)"/>
<path d="M0 0 C1.08667969 0.01804688 2.17335938 0.03609375 3.29296875 0.0546875 C4.54013672 0.08949219 4.54013672 0.08949219 5.8125 0.125 C5.4825 1.115 5.1525 2.105 4.8125 3.125 C3.8225 3.125 2.8325 3.125 1.8125 3.125 C2.1425 4.115 2.4725 5.105 2.8125 6.125 C-1.29649581 4.99704037 -5.26311214 3.78989182 -9.1875 2.125 C-5.66070901 -0.22619399 -4.15870515 -0.08943452 0 0 Z " fill="#8688EE" transform="translate(52.1875,60.875)"/>
<path d="M0 0 C3.36878975 1.43526804 5.27004853 3.21596659 7.6875 5.9375 C11.68818211 10.08886694 15.4283844 11.7618632 21 13 C21.33 12.34 21.66 11.68 22 11 C22 11.99 22 12.98 22 14 C16.555 13.505 16.555 13.505 11 13 C11 12.34 11 11.68 11 11 C10.01 11 9.02 11 8 11 C7.525625 10.195625 7.05125 9.39125 6.5625 8.5625 C5.2970963 5.8274041 5.2970963 5.8274041 2.9375 5.4375 C2.298125 5.293125 1.65875 5.14875 1 5 C-0.25 2.9375 -0.25 2.9375 -1 1 C-0.67 0.67 -0.34 0.34 0 0 Z " fill="#607DD5" transform="translate(8,74)"/>
<path d="M0 0 C0.33 0.99 0.66 1.98 1 3 C-6.92 3.33 -14.84 3.66 -23 4 C-23 3.34 -23 2.68 -23 2 C-15.39701733 -0.48260659 -7.89688807 -0.18508331 0 0 Z " fill="#39DE4E" transform="translate(72,6)"/>
<path d="M0 0 C0.33 0.66 0.66 1.32 1 2 C0.01 2 -0.98 2 -2 2 C-2 3.98 -2 5.96 -2 8 C-1.34 8 -0.68 8 0 8 C0 7.34 0 6.68 0 6 C0.99 6 1.98 6 3 6 C2.67 7.32 2.34 8.64 2 10 C2.66 10 3.32 10 4 10 C4 10.99 4 11.98 4 13 C1.69 13 -0.62 13 -3 13 C-3 9.04 -3 5.08 -3 1 C-2.01 0.67 -1.02 0.34 0 0 Z " fill="#8894F2" transform="translate(45,46)"/>
<path d="M0 0 C1.65 0.33 3.3 0.66 5 1 C4.38722388 3.96175123 3.74627478 5.38058783 2 8 C-0.64 7.67 -3.28 7.34 -6 7 C-6 6.34 -6 5.68 -6 5 C-4.35 4.67 -2.7 4.34 -1 4 C-0.67 2.68 -0.34 1.36 0 0 Z " fill="#8EA2F5" transform="translate(74,40)"/>
<path d="M0 0 C2.6875 0.875 2.6875 0.875 5 2 C4.67 3.32 4.34 4.64 4 6 C-1.75 6.125 -1.75 6.125 -4 5 C-4.33 5.66 -4.66 6.32 -5 7 C-6.32 6.67 -7.64 6.34 -9 6 C-9 5.34 -9 4.68 -9 4 C-7.6078125 3.566875 -7.6078125 3.566875 -6.1875 3.125 C-2.90208333 2.1125 -2.90208333 2.1125 0 0 Z " fill="#F9F5F9" transform="translate(127,109)"/>
<path d="M0 0 C0 0.99 0 1.98 0 3 C-1.32 3 -2.64 3 -4 3 C-4 3.66 -4 4.32 -4 5 C-4.99 5.495 -4.99 5.495 -6 6 C-6.65213292 8.02463255 -6.65213292 8.02463255 -7 10 C-7.99 10 -8.98 10 -10 10 C-10 9.34 -10 8.68 -10 8 C-11.32 7.67 -12.64 7.34 -14 7 C-12.23462904 5.82508418 -10.46250287 4.66031316 -8.6875 3.5 C-7.70136719 2.8503125 -6.71523437 2.200625 -5.69921875 1.53125 C-3 0 -3 0 0 0 Z " fill="#C1A5EC" transform="translate(107,110)"/>
<path d="M0 0 C0 2.31 0 4.62 0 7 C-0.99 6.67 -1.98 6.34 -3 6 C-4.89470816 5.9314505 -6.7916834 5.91519628 -8.6875 5.9375 C-9.68136719 5.94652344 -10.67523438 5.95554687 -11.69921875 5.96484375 C-12.45847656 5.97644531 -13.21773438 5.98804687 -14 6 C-11 4 -11 4 -8 4 C-8 3.34 -8 2.68 -8 2 C-4.91190305 0.23537317 -3.76687864 0 0 0 Z " fill="#EE8428" transform="translate(121,115)"/>
<path d="M0 0 C0.99 0 1.98 0 3 0 C2.67 2.31 2.34 4.62 2 7 C1.01 7 0.02 7 -1 7 C-1 7.99 -1 8.98 -1 10 C-1.66 10 -2.32 10 -3 10 C-3.33 12.64 -3.66 15.28 -4 18 C-4.33 18 -4.66 18 -5 18 C-5.55709043 11.59346001 -3.7490111 6.76298713 -1 1 C-0.67 0.67 -0.34 0.34 0 0 Z " fill="#98A8F6" transform="translate(43,40)"/>
<path d="M0 0 C0.66 0 1.32 0 2 0 C2 1.65 2 3.3 2 5 C1.34 5 0.68 5 0 5 C0 5.66 0 6.32 0 7 C-6.625 6.25 -6.625 6.25 -10 4 C-5.25 1 -5.25 1 -3 1 C-3 2.32 -3 3.64 -3 5 C-2.34 5 -1.68 5 -1 5 C-0.67 3.35 -0.34 1.7 0 0 Z " fill="#7832D3" transform="translate(67,114)"/>
<path d="M0 0 C0 0.66 0 1.32 0 2 C-0.66 2 -1.32 2 -2 2 C-2 2.99 -2 3.98 -2 5 C-0.35 5.33 1.3 5.66 3 6 C3 6.99 3 7.98 3 9 C3.99 9 4.98 9 6 9 C6 9.66 6 10.32 6 11 C3.83125748 10.49396008 2.00032373 10.00016187 0 9 C0 8.34 0 7.68 0 7 C-0.61875 6.7525 -1.2375 6.505 -1.875 6.25 C-4.35068687 4.79371361 -4.95125002 3.62187494 -6 1 C-3 0 -3 0 0 0 Z " fill="#6075F0" transform="translate(102,45)"/>
<path d="M0 0 C1.98 0.99 3.96 1.98 6 3 C5.125 7.875 5.125 7.875 4 9 C2.00041636 9.04080783 -0.00045254 9.04254356 -2 9 C-1.34 8.67 -0.68 8.34 0 8 C0 5.36 0 2.72 0 0 Z " fill="#6C64E7" transform="translate(101,66)"/>
<path d="M0 0 C1.32 0.33 2.64 0.66 4 1 C4.33 2.32 4.66 3.64 5 5 C4.34 5 3.68 5 3 5 C3 5.66 3 6.32 3 7 C0.03 6.505 0.03 6.505 -3 6 C-3 6.66 -3 7.32 -3 8 C-4.32 8 -5.64 8 -7 8 C-7 7.01 -7 6.02 -7 5 C-0.25 3.875 -0.25 3.875 2 5 C2 4.34 2 3.68 2 3 C1.34 3 0.68 3 0 3 C0 2.01 0 1.02 0 0 Z " fill="#7F93F4" transform="translate(107,42)"/>
<path d="M0 0 C2.25696728 4.51393456 2.08092895 8.06333406 2 13 C1.01 13.33 0.02 13.66 -1 14 C-2 13 -2 13 -2.1875 9.25 C-2.15615249 5.76415714 -1.57760458 3.15520917 0 0 Z " fill="#2B83F8" transform="translate(6,77)"/>
<path d="M0 0 C0.33 0 0.66 0 1 0 C1 1.65 1 3.3 1 5 C1.66 5 2.32 5 3 5 C2.6875 6.9375 2.6875 6.9375 2 9 C-0.75078884 9.91692961 -2.35948913 10.10886083 -5.1875 10.0625 C-7.0746875 10.0315625 -7.0746875 10.0315625 -9 10 C-8.67 9.34 -8.34 8.68 -8 8 C-5.69 8 -3.38 8 -1 8 C-1.33 7.01 -1.66 6.02 -2 5 C-1.0625 2.3125 -1.0625 2.3125 0 0 Z " fill="#797AEC" transform="translate(92,58)"/>
<path d="M0 0 C-0.33 2.97 -0.66 5.94 -1 9 C-1.33 8.01 -1.66 7.02 -2 6 C-4.42383077 4.83046584 -4.42383077 4.83046584 -7 4 C-7.66 3.67 -8.32 3.34 -9 3 C-9 2.34 -9 1.68 -9 1 C-2.25 0 -2.25 0 0 0 Z " fill="#CCCBF8" transform="translate(111,64)"/>
<path d="M0 0 C0.8353125 0.556875 0.8353125 0.556875 1.6875 1.125 C0.6975 1.62 0.6975 1.62 -0.3125 2.125 C-0.3125 3.115 -0.3125 4.105 -0.3125 5.125 C0.6775 5.125 1.6675 5.125 2.6875 5.125 C2.3575 6.115 2.0275 7.105 1.6875 8.125 C-0.35083424 6.8510411 -2.35102126 5.51438077 -4.3125 4.125 C-4.3125 3.465 -4.3125 2.805 -4.3125 2.125 C-5.3025 1.795 -6.2925 1.465 -7.3125 1.125 C-2.88173077 -1.09038462 -2.88173077 -1.09038462 0 0 Z " fill="#9BB0F8" transform="translate(92.3125,35.875)"/>
<path d="M0 0 C0.33 0.66 0.66 1.32 1 2 C2.65 2 4.3 2 6 2 C6 2.66 6 3.32 6 4 C5.34 4 4.68 4 4 4 C4 4.66 4 5.32 4 6 C0.86650268 7.04449911 0.01031744 6.93423645 -3 6 C-2.67 4.68 -2.34 3.36 -2 2 C-1.34 2 -0.68 2 0 2 C0 1.34 0 0.68 0 0 Z " fill="#A378E3" transform="translate(103,113)"/>
<path d="M0 0 C0.33 0 0.66 0 1 0 C1.33 4.62 1.66 9.24 2 14 C-1 16 -1 16 -4 16 C-3 14 -3 14 0 12 C-0.165 11.484375 -0.33 10.96875 -0.5 10.4375 C-1.1542464 7.24804881 -1.12249588 4.24614095 -1 1 C-0.67 0.67 -0.34 0.34 0 0 Z " fill="#6932D6" transform="translate(70,95)"/>
<path d="M0 0 C2.20004472 0.41780398 4.38631928 0.9093008 6.5625 1.4375 C7.76003906 1.72496094 8.95757812 2.01242188 10.19140625 2.30859375 C11.11824219 2.53675781 12.04507813 2.76492187 13 3 C11.68 3.99 10.36 4.98 9 6 C9 5.34 9 4.68 9 4 C6.03 4 3.06 4 0 4 C-0.33 3.01 -0.66 2.02 -1 1 C-0.67 0.67 -0.34 0.34 0 0 Z " fill="#B99CEB" transform="translate(114,106)"/>
<path d="M0 0 C4.29 0.33 8.58 0.66 13 1 C12.67 1.99 12.34 2.98 12 4 C10.3745692 3.85904936 8.74965949 3.71207913 7.125 3.5625 C6.22007813 3.48128906 5.31515625 3.40007812 4.3828125 3.31640625 C2 3 2 3 0 2 C0 1.34 0 0.68 0 0 Z " fill="#C6AAED" transform="translate(71,119)"/>
<path d="M0 0 C0.66 0.33 1.32 0.66 2 1 C1.67 3.31 1.34 5.62 1 8 C0.34 8 -0.32 8 -1 8 C-1 6.68 -1 5.36 -1 4 C-1.5775 4.350625 -2.155 4.70125 -2.75 5.0625 C-5.35801776 6.14917407 -6.39417629 5.93065133 -9 5 C-3.375 2 -3.375 2 0 2 C0 1.34 0 0.68 0 0 Z " fill="#A379E3" transform="translate(65,111)"/>
<path d="M0 0 C3.96 0 7.92 0 12 0 C11.01 0.33 10.02 0.66 9 1 C9 1.66 9 2.32 9 3 C6.69 3 4.38 3 2 3 C2 3.66 2 4.32 2 5 C1.34 5 0.68 5 0 5 C0 3.35 0 1.7 0 0 Z " fill="#A0B2F8" transform="translate(60,40)"/>
<path d="M0 0 C0.99 0 1.98 0 3 0 C3 0.99 3 1.98 3 3 C3.66 3 4.32 3 5 3 C5.33 4.65 5.66 6.3 6 8 C6.99 8.33 7.98 8.66 9 9 C9 9.66 9 10.32 9 11 C7.35 10.67 5.7 10.34 4 10 C3.566875 8.63875 3.566875 8.63875 3.125 7.25 C2.23468224 4.67797092 1.28505587 2.38653234 0 0 Z " fill="#BCA7EE" transform="translate(68,91)"/>
<path d="M0 0 C0 0.99 0 1.98 0 3 C-0.66 3 -1.32 3 -2 3 C-2.33 4.32 -2.66 5.64 -3 7 C-3.66 7 -4.32 7 -5 7 C-5 5.35 -5 3.7 -5 2 C-6.98 2 -8.96 2 -11 2 C-11 1.67 -11 1.34 -11 1 C-7.26513121 0.4254048 -3.78706732 0 0 0 Z " fill="#A78FEA" transform="translate(83,91)"/>
<path d="M0 0 C2.12472576 -0.05386629 4.24983652 -0.09273071 6.375 -0.125 C7.55835938 -0.14820312 8.74171875 -0.17140625 9.9609375 -0.1953125 C13 0 13 0 15 2 C10.71 2 6.42 2 2 2 C1.67 2.66 1.34 3.32 1 4 C0.67 2.68 0.34 1.36 0 0 Z " fill="#A4E84C" transform="translate(29,108)"/>
<path d="M0 0 C0.33 0 0.66 0 1 0 C1.144375 1.216875 1.28875 2.43375 1.4375 3.6875 C1.73451213 6.15532135 2.107842 8.45097563 2.6875 10.875 C2.790625 11.57625 2.89375 12.2775 3 13 C2.34 13.66 1.68 14.32 1 15 C0.01 14.67 -0.98 14.34 -2 14 C-1.34 13.67 -0.68 13.34 0 13 C0.33 12.01 0.66 11.02 1 10 C0.34 10 -0.32 10 -1 10 C-0.67 6.7 -0.34 3.4 0 0 Z " fill="#ADB0F4" transform="translate(94,53)"/>
<path d="M0 0 C1.8871875 0.0309375 1.8871875 0.0309375 3.8125 0.0625 C3.8125 0.3925 3.8125 0.7225 3.8125 1.0625 C2.141875 1.4646875 2.141875 1.4646875 0.4375 1.875 C-3.40590951 2.72059019 -3.40590951 2.72059019 -5.1875 6.0625 C-6.5075 6.0625 -7.8275 6.0625 -9.1875 6.0625 C-9.1875 5.4025 -9.1875 4.7425 -9.1875 4.0625 C-8.5275 4.0625 -7.8675 4.0625 -7.1875 4.0625 C-7.1875 3.0725 -7.1875 2.0825 -7.1875 1.0625 C-4.43671116 0.14557039 -2.82801087 -0.04636083 0 0 Z " fill="#CDCFF8" transform="translate(67.1875,58.9375)"/>
<path d="M0 0 C2.64 0 5.28 0 8 0 C6.25 3 6.25 3 4 6 C2.68 6 1.36 6 0 6 C0 5.01 0 4.02 0 3 C0.99 2.67 1.98 2.34 3 2 C2.01 1.34 1.02 0.68 0 0 Z " fill="#998BEB" transform="translate(100,77)"/>
<path d="M0 0 C0.66 0.33 1.32 0.66 2 1 C2 1.66 2 2.32 2 3 C1.34 3 0.68 3 0 3 C0 3.66 0 4.32 0 5 C0.66 5 1.32 5 2 5 C1.67 6.65 1.34 8.3 1 10 C-0.32 9.67 -1.64 9.34 -3 9 C-3 8.01 -3 7.02 -3 6 C-2.34 6 -1.68 6 -1 6 C-0.67 4.02 -0.34 2.04 0 0 Z " fill="#9C7CE5" transform="translate(101,94)"/>
<path d="M0 0 C2.60018816 3.90028225 2.15085514 7.47434569 2 12 C1.67 12 1.34 12 1 12 C1 9.69 1 7.38 1 5 C0.34 5 -0.32 5 -1 5 C-0.67 6.32 -0.34 7.64 0 9 C-0.66 9 -1.32 9 -2 9 C-2.33 6.69 -2.66 4.38 -3 2 C-2.01 2.33 -1.02 2.66 0 3 C0 2.01 0 1.02 0 0 Z " fill="#929DF3" transform="translate(113,49)"/>
<path d="M0 0 C3.37219855 0.56203309 5.9911635 1.40155561 9 3 C10.66140763 3.67966676 12.32700041 4.34938905 14 5 C14 5.33 14 5.66 14 6 C12.58249437 5.88490339 11.16598831 5.75746342 9.75 5.625 C8.96109375 5.55539063 8.1721875 5.48578125 7.359375 5.4140625 C4.85521048 4.97458992 3.13042844 4.38572115 1 3 C0.67 2.01 0.34 1.02 0 0 Z " fill="#733ED8" transform="translate(110,102)"/>
<path d="M0 0 C2.64 0 5.28 0 8 0 C8 0.33 8 0.66 8 1 C6.7934375 1.185625 6.7934375 1.185625 5.5625 1.375 C4.716875 1.58125 3.87125 1.7875 3 2 C2.67 2.66 2.34 3.32 2 4 C3.32 4.33 4.64 4.66 6 5 C4.68 5 3.36 5 2 5 C1.67 6.32 1.34 7.64 1 9 C0.67 6.03 0.34 3.06 0 0 Z " fill="#715DE4" transform="translate(60,77)"/>
<path d="M0 0 C0.33 0.66 0.66 1.32 1 2 C1.99 2 2.98 2 4 2 C4 3.32 4 4.64 4 6 C1.03824877 5.38722388 -0.38058783 4.74627478 -3 3 C-3 2.34 -3 1.68 -3 1 C-2.01 0.67 -1.02 0.34 0 0 Z " fill="#AAAAF2" transform="translate(57,63)"/>
<path d="M0 0 C1.98 0 3.96 0 6 0 C5.51917969 0.37769531 5.03835937 0.75539062 4.54296875 1.14453125 C2.46337042 3.64531405 2.50158423 5.47306804 2.3125 8.6875 C2.21388672 10.17830078 2.21388672 10.17830078 2.11328125 11.69921875 C2.05720703 12.83810547 2.05720703 12.83810547 2 14 C1.67 14 1.34 14 1 14 C0.83165067 12.22932584 0.66538091 10.45845388 0.5 8.6875 C0.4071875 7.70136719 0.314375 6.71523438 0.21875 5.69921875 C0 3 0 3 0 0 Z " fill="#7A94F5" transform="translate(79,36)"/>
<path d="M0 0 C3.36591866 1.44253657 5.51047079 3.33264727 8 6 C7.34 6.66 6.68 7.32 6 8 C5.67 7.01 5.34 6.02 5 5 C3.68 5 2.36 5 1 5 C0.67 3.35 0.34 1.7 0 0 Z " fill="#A7B1F6" transform="translate(94,47)"/>
<path d="M0 0 C0.33 0 0.66 0 1 0 C1 2.64 1 5.28 1 8 C-1.65228812 9.07525194 -4.28368454 10.09456151 -7 11 C-6 8 -6 8 -3.5 6.625 C-0.75147228 5.22066726 -0.75147228 5.22066726 -0.1875 2.3125 C-0.125625 1.549375 -0.06375 0.78625 0 0 Z " fill="#BDA1EC" transform="translate(73,103)"/>
<path d="M0 0 C2.31 0 4.62 0 7 0 C7.33 0.66 7.66 1.32 8 2 C5.36 2.66 2.72 3.32 0 4 C0 2.68 0 1.36 0 0 Z " fill="#4C4DE6" transform="translate(62,64)"/>
<path d="M0 0 C2.64 0 5.28 0 8 0 C7.67 0.99 7.34 1.98 7 3 C4.69 3 2.38 3 0 3 C0 2.01 0 1.02 0 0 Z " fill="#5A5FE9" transform="translate(50,61)"/>
<path d="M0 0 C2.875 -0.125 2.875 -0.125 6 0 C6.66 0.66 7.32 1.32 8 2 C5.04335481 3.4783226 2.25770263 3.06032783 -1 3 C-0.67 2.01 -0.34 1.02 0 0 Z " fill="#EECD25" transform="translate(110,123)"/>
<path d="M0 0 C1.9451 2.91765 2.45276317 4.62537285 3 8 C0.69 7.34 -1.62 6.68 -4 6 C-2.68 5.67 -1.36 5.34 0 5 C-0.2784375 4.0409375 -0.2784375 4.0409375 -0.5625 3.0625 C-0.706875 2.381875 -0.85125 1.70125 -1 1 C-0.67 0.67 -0.34 0.34 0 0 Z " fill="#EBCA57" transform="translate(26,79)"/>
<path d="M0 0 C3.3 0.33 6.6 0.66 10 1 C8.68 2.65 7.36 4.3 6 6 C6 5.01 6 4.02 6 3 C3.03 2.505 3.03 2.505 0 2 C0 1.34 0 0.68 0 0 Z " fill="#4265F0" transform="translate(47,41)"/>
<path d="M0 0 C0.66 0 1.32 0 2 0 C2 0.66 2 1.32 2 2 C3.32 2 4.64 2 6 2 C6 2.66 6 3.32 6 4 C4.02 4.66 2.04 5.32 0 6 C0 4.02 0 2.04 0 0 Z " fill="#7E36D3" transform="translate(94,119)"/>
<path d="M0 0 C-0.6875 1.9375 -0.6875 1.9375 -2 4 C-4.625 4.75 -4.625 4.75 -7 5 C-7 4.01 -7 3.02 -7 2 C-4.35261084 0.5393715 -3.10551666 0 0 0 Z " fill="#6728D3" transform="translate(106,107)"/>
<path d="M0 0 C-0.99 1.485 -0.99 1.485 -2 3 C-5.125 3.1875 -5.125 3.1875 -8 3 C-7.67 2.01 -7.34 1.02 -7 0 C-2.25 -1.125 -2.25 -1.125 0 0 Z " fill="#A69AEE" transform="translate(70,78)"/>
<path d="M0 0 C0.33 1.32 0.66 2.64 1 4 C-2.05263664 4.98120464 -3.94736336 4.98120464 -7 4 C-5.68 3.67 -4.36 3.34 -3 3 C-3 2.34 -3 1.68 -3 1 C-2.01 0.67 -1.02 0.34 0 0 Z " fill="#9899F1" transform="translate(107,61)"/>
<path d="M0 0 C1.32 0 2.64 0 4 0 C4 0.99 4 1.98 4 3 C3.195625 3.12375 2.39125 3.2475 1.5625 3.375 C0.2940625 3.684375 0.2940625 3.684375 -1 4 C-1.33 4.66 -1.66 5.32 -2 6 C-2.33 4.68 -2.66 3.36 -3 2 C-2.01 2 -1.02 2 0 2 C0 1.34 0 0.68 0 0 Z " fill="#5371F1" transform="translate(69,41)"/>
<path d="M0 0 C0.66 0 1.32 0 2 0 C2 0.66 2 1.32 2 2 C2.66 2 3.32 2 4 2 C4 2.99 4 3.98 4 5 C2.35 5 0.7 5 -1 5 C-0.67 3.35 -0.34 1.7 0 0 Z " fill="#808FF2" transform="translate(63,49)"/>
<path d="M0 0 C0.99 0.33 1.98 0.66 3 1 C3 2.32 3 3.64 3 5 C0.03 4.505 0.03 4.505 -3 4 C-3 3.34 -3 2.68 -3 2 C-2.01 2 -1.02 2 0 2 C0 1.34 0 0.68 0 0 Z " fill="#3854EC" transform="translate(46,46)"/>
<path d="M0 0 C-0.928125 0.680625 -0.928125 0.680625 -1.875 1.375 C-4.05919833 2.97108919 -4.05919833 2.97108919 -6 5 C-6 4.34 -6 3.68 -6 3 C-7.32 2.67 -8.64 2.34 -10 2 C-9.01 2 -8.02 2 -7 2 C-7 1.34 -7 0.68 -7 0 C-2.25 -1.125 -2.25 -1.125 0 0 Z " fill="#A276E2" transform="translate(98,115)"/>
<path d="M0 0 C0.33 0.66 0.66 1.32 1 2 C-2.3 2.33 -5.6 2.66 -9 3 C-7.06650581 -0.86698838 -3.87429426 -1.60315625 0 0 Z " fill="#4ED170" transform="translate(39,103)"/>
<path d="M0 0 C0.33 0.66 0.66 1.32 1 2 C3.64 2 6.28 2 9 2 C9 2.33 9 2.66 9 3 C2.25 5.125 2.25 5.125 0 4 C0 3.34 0 2.68 0 2 C-0.99 1.67 -1.98 1.34 -3 1 C-2.01 0.67 -1.02 0.34 0 0 Z " fill="#9AB1F8" transform="translate(75,33)"/>
<path d="M0 0 C0.66 0 1.32 0 2 0 C2 1.65 2 3.3 2 5 C1.34 5 0.68 5 0 5 C0 5.66 0 6.32 0 7 C-0.66 7 -1.32 7 -2 7 C-1.34 4.69 -0.68 2.38 0 0 Z " fill="#8348D8" transform="translate(67,114)"/>
<path d="M0 0 C0.33 0.66 0.66 1.32 1 2 C1.99 2.33 2.98 2.66 4 3 C1.35261084 4.4606285 0.10551666 5 -3 5 C-2.625 3.0625 -2.625 3.0625 -2 1 C-1.34 0.67 -0.68 0.34 0 0 Z " fill="#976DE2" transform="translate(102,104)"/>
<path d="M0 0 C0.99 0 1.98 0 3 0 C3 1.98 3 3.96 3 6 C2.01 6 1.02 6 0 6 C0 4.02 0 2.04 0 0 Z " fill="#6F45DB" transform="translate(74,93)"/>
<path d="M0 0 C1.44197868 2.88395737 1.58833581 5.82430479 2 9 C0.68 8.67 -0.64 8.34 -2 8 C-1.125 1.125 -1.125 1.125 0 0 Z " fill="#386AF2" transform="translate(6,77)"/>
<path d="M0 0 C0.99 0.33 1.98 0.66 3 1 C3 1.99 3 2.98 3 4 C3.99 4.33 4.98 4.66 6 5 C5.01 5.66 4.02 6.32 3 7 C3 6.34 3 5.68 3 5 C2.01 5 1.02 5 0 5 C0 3.35 0 1.7 0 0 Z " fill="#97A1F3" transform="translate(70,51)"/>
<path d="M0 0 C0.99 0.33 1.98 0.66 3 1 C3 2.32 3 3.64 3 5 C1.68 4.67 0.36 4.34 -1 4 C-1.33 4.66 -1.66 5.32 -2 6 C-1.49396008 3.83125748 -1.00016187 2.00032373 0 0 Z " fill="#B4BEF8" transform="translate(110,47)"/>
<path d="M0 0 C1.32 0 2.64 0 4 0 C4 1.32 4 2.64 4 4 C2.68 4.33 1.36 4.66 0 5 C0 3.35 0 1.7 0 0 Z " fill="#97A8F6" transform="translate(102,42)"/>
<path d="M0 0 C1.32 0.33 2.64 0.66 4 1 C3.67 2.32 3.34 3.64 3 5 C2.01 5 1.02 5 0 5 C0 3.35 0 1.7 0 0 Z " fill="#5F7DF2" transform="translate(75,40)"/>
<path d="M0 0 C0.66 0 1.32 0 2 0 C2 0.99 2 1.98 2 3 C1.01 3 0.02 3 -1 3 C-1 3.66 -1 4.32 -1 5 C0.98 5.495 0.98 5.495 3 6 C1.68 6 0.36 6 -1 6 C-1.33 6.66 -1.66 7.32 -2 8 C-2.125 5.125 -2.125 5.125 -2 2 C-1.34 1.34 -0.68 0.68 0 0 Z " fill="#5879F3" transform="translate(83,37)"/>
<path d="M0 0 C1.4540625 0.0309375 1.4540625 0.0309375 2.9375 0.0625 C1.64784824 1.43812854 0.31060707 2.77016393 -1.0625 4.0625 C-1.7225 4.0625 -2.3825 4.0625 -3.0625 4.0625 C-3.3925 3.0725 -3.7225 2.0825 -4.0625 1.0625 C-3.0625 0.0625 -3.0625 0.0625 0 0 Z " fill="#A2E44F" transform="translate(51.0625,17.9375)"/>
<path d="M0 0 C0 0.99 0 1.98 0 3 C-2.97 3 -5.94 3 -9 3 C-5.73203373 0.29547619 -4.20203536 0 0 0 Z " fill="#ECEF42" transform="translate(44,114)"/>
<path d="M0 0 C3.34998521 1.11666174 3.79340222 1.74694925 5.6875 4.5625 C6.12449219 5.20316406 6.56148437 5.84382813 7.01171875 6.50390625 C7.33785156 6.99761719 7.66398437 7.49132812 8 8 C4.63820226 6.55922954 2.40843732 4.75249979 0 2 C0 1.34 0 0.68 0 0 Z " fill="#603AC2" transform="translate(38,101)"/>
<path d="M0 0 C0.66 0 1.32 0 2 0 C1.67 2.97 1.34 5.94 1 9 C-1.08954032 4.82091936 -1.16552619 4.19589427 0 0 Z " fill="#D5D4F9" transform="translate(109,64)"/>
<path d="M0 0 C0.33 0.66 0.66 1.32 1 2 C1.99 2.66 2.98 3.32 4 4 C2.02 4 0.04 4 -2 4 C-2 3.34 -2 2.68 -2 2 C-2.99 1.67 -3.98 1.34 -5 1 C-3 0 -3 0 0 0 Z " fill="#B5B5F4" transform="translate(76,64)"/>
</svg>
